<svg id="anchor" xmlns="https://www.w3.org/2000/svg" xmlns:xlink="https://www.w3.org/1999/xlink" version="1.1" x="0px" y="0px" viewBox="0 0 300.187 300.187" style="enable-background:new 0 0 300.187 300.187;" xml:space="preserve">
<path d="M284.255,187.297c-1.772-1.761-4.304-2.521-6.756-2.033l-71.478,14.296c-2.292,0.459-4.239,1.96-5.267,4.06  s-1.017,4.559,0.029,6.648l10.424,20.85l-25.753,8.557l-12.152-124.986h48.484c0.008,0.001,0.015,0,0.02,0  c4.143,0,7.5-3.357,7.5-7.5c0-1.419-0.394-2.745-1.077-3.876l-14.058-27.534c-1.281-2.51-3.861-4.09-6.68-4.09h-18.914  c4.862-7.313,7.703-16.08,7.703-25.5C196.281,20.72,175.562,0,150.093,0c-25.468,0-46.188,20.72-46.188,46.188  c0,9.42,2.841,18.187,7.703,25.5H92.694c-2.818,0-5.398,1.58-6.68,4.09l-14.296,28c-1.188,2.325-1.08,5.1,0.283,7.326  s3.786,3.584,6.396,3.584h48.484L114.73,239.669l-25.753-8.57l10.425-20.84c1.046-2.091,1.057-4.55,0.029-6.65  c-1.026-2.101-2.975-3.602-5.267-4.06l-71.478-14.29c-2.45-0.488-4.982,0.272-6.756,2.033c-1.772,1.76-2.552,4.288-2.079,6.741  l13.862,71.913c0.445,2.312,1.951,4.28,4.065,5.315s4.592,1.019,6.692-0.047l25.655-13.018l82.395,41.197  c1.057,0.528,2.205,0.792,3.354,0.792c1.145,0,2.289-0.262,3.341-0.785l82.832-41.207l25.664,13.023  c2.098,1.065,4.577,1.082,6.692,0.047c2.114-1.035,3.62-3.004,4.065-5.315l13.862-71.911  C286.807,191.585,286.027,189.057,284.255,187.297z M150.093,30c8.927,0,16.188,7.262,16.188,16.188s-7.262,16.188-16.188,16.188  c-8.926,0-16.188-7.262-16.188-16.188S141.167,30,150.093,30z"/>
</svg>