<svg id="bottle" xmlns="https://www.w3.org/2000/svg" xmlns:xlink="https://www.w3.org/1999/xlink" version="1.1" x="0px" y="0px" viewBox="0 0 294.193 294.193" style="enable-background:new 0 0 294.193 294.193;" xml:space="preserve">
<path d="M289.756,277.71c-5.881,5.832-15.379,5.8-21.213-0.082l-0.117-0.107c-4.183-4.196-9.769-6.499-15.705-6.499  c-0.007,0-0.014,0-0.021,0c-5.943,0-11.533,2.323-15.739,6.559c-9.897,9.965-23.038,15.441-37.023,15.441c-0.016,0-0.032,0-0.048,0  c-13.968,0-27.099-5.461-36.979-15.374l-0.144-0.149c-1.452-1.456-3.081-2.67-4.826-3.657l-15.645-2.335  c-4.131,0.904-7.931,2.968-10.993,6.051c-9.899,9.965-23.04,15.463-37.026,15.463c-0.015,0-0.031,0-0.046,0  c-13.969,0-27.098-5.445-36.978-15.358l-0.124-0.112c-4.227-4.239-9.813-6.531-15.749-6.531c-0.004,0-0.007,0-0.011,0  c-5.94,0-11.528,2.307-15.735,6.536c-5.845,5.87-15.342,5.869-21.214,0.028c-5.872-5.843-5.896-15.324-0.054-21.197  c9.876-9.926,23.013-15.368,36.989-15.368c0.008,0,0.017,0,0.024,0c13.615,0,26.425,5.163,36.214,14.604  c-0.029-1.028,0.143-2.098,0.541-3.076l50.44-123.81c7.728-18.968,26.471-31.224,47.75-31.224c0.039,0,0.078,0.003,0.117,0.003  l15.914-39.062l-0.392-0.16c-1.842-0.75-3.311-2.202-4.082-4.035c-0.772-1.833-0.784-3.897-0.033-5.74l6.686-16.409  c1.562-3.836,5.939-5.68,9.775-4.115l9.125,3.718l10.541-25.873c1.563-3.836,5.938-5.68,9.775-4.115l17.292,7.045  c1.843,0.75,3.312,2.201,4.083,4.035c0.772,1.833,0.784,3.897,0.033,5.74l-10.541,25.873l9.125,3.718  c3.836,1.563,5.679,5.938,4.116,9.774l-6.686,16.409c-0.75,1.843-2.201,3.312-4.035,4.083c-0.93,0.392-1.92,0.588-2.91,0.588  c-0.961,0-1.923-0.184-2.83-0.554l-0.391-0.158l-15.919,39.075c14.77,14.401,20.375,36.261,12.425,55.774l-36.602,89.844  c5.566-0.253,10.77-2.52,14.738-6.515c9.896-9.965,23.036-15.437,37.022-15.437c0.015,0,0.033,0,0.048,0  c13.969,0,27.099,5.434,36.979,15.347l0.144,0.123C295.678,262.374,295.638,271.877,289.756,277.71z"/>
</svg>