<svg id="captainCap" xmlns="https://www.w3.org/2000/svg" xmlns:xlink="https://www.w3.org/1999/xlink" version="1.1" x="0px" y="0px" viewBox="0 0 277.891 277.891" style="enable-background:new 0 0 277.891 277.891;" xml:space="preserve">
	<path d="M277.891,117.177c0-18.479-16.225-35.654-45.893-48.36c-26.386-11.3-60.223-17.781-92.936-17.781  s-66.579,6.481-92.965,17.781C16.43,81.524,0,98.697,0,117.177c0,14.536,9.786,28.26,28.786,39.641v23.119  c0,0.419,0.139,0.83,0.168,1.242c-0.042,0.429-0.01,0.863-0.01,1.303c0,13.956,24.279,25.539,34.707,29.871  c13.036,5.416,40.186,14.502,75.455,14.502c35.271,0,62.414-9.086,75.45-14.502c10.428-4.332,34.684-15.915,34.684-29.871  c0-0.44-0.248-0.875-0.29-1.303c0.029-0.412-0.164-0.823-0.164-1.241v-23.12C267.786,145.437,277.891,131.712,277.891,117.177z   M117.129,89.242c4.143,0,7.5,3.357,7.5,7.5c0,5.042,2.425,9.486,6.343,12.083c-0.006-0.126-0.186-0.251-0.186-0.379v-38  c0-4.143,3.357-7.5,7.5-7.5s7.5,3.357,7.5,7.5v38c0,0.348,0.135,0.688,0.089,1.023c4.505-2.46,7.652-7.241,7.652-12.726  c0-4.143,3.399-7.5,7.542-7.5s7.521,3.357,7.521,7.5c0,16.261-13.219,29.49-29.481,29.49c-16.261,0-29.485-13.229-29.485-29.49  C109.624,92.6,112.986,89.242,117.129,89.242z M227.119,183.445h-177c-4.143,0-7.5-3.357-7.5-7.5s3.357-7.5,7.5-7.5h177  c4.143,0,7.5,3.357,7.5,7.5S231.262,183.445,227.119,183.445z"/>
</svg>