<svg version="1" xmlns="https://www.w3.org/2000/svg" width="682.667" height="682.667" viewBox="0 0 512.000000 512.000000"><path d="M238.3 49.8c-1.8.2-3.7 1.1-4.2 2-.5.9-.9 6.1-1 11.4l-.2 9.8h48.4l-.7-11.2c-.3-6.1-.8-11.3-1-11.5-.4-.5-37.3-.9-41.3-.5zM235.8 82.8l-2.8.3v28.4h24l24 .1V82.5h-21.3c-11.6 0-22.4.1-23.9.3zM204.8 126.8c-8.3.3-8.8.4-9.4 2.7-.8 3.1-1.2 29.5-.5 29.7.3 0 28.5.2 62.7.3l62 .2-.3-8.6c-.6-17.1-1-23.1-1.4-23.6-.6-.5-99.8-1.2-113.1-.7zM195.6 174.7c-.1.1-6.1.3-13.2.4-7.2 0-13.6.4-14.2.8-.7.4-1.5 3.6-1.8 7.2-.9 9.4-1 71-.2 71.5.4.3 2.2-.2 4-1 1.8-.8 10.5-4.4 19.3-8.1 8.8-3.7 17.4-7.3 19-8.1 15-6.7 44.8-17.4 48.6-17.4 4.8 0 30 9.6 72.3 27.4 9.9 4.2 18.2 7.4 18.5 7.1.5-.6 0-49.4-.8-76.6l-.1-2.7-35.2-.2c-62.5-.4-116-.5-116.2-.3z"/><path d="M228 241.1c-11.3 4.8-22.5 9.6-25 10.7-2.5 1-19.1 8.1-37 15.7-36.6 15.5-53.1 23.5-55.9 27.1-2.6 3.3-2 7 2.7 16.9 2.9 5.9 29.5 51.5 31.8 54.4.2.2 4-2.4 8.4-5.9 15.2-11.5 28-15.8 44.4-14.7 16.1 1 27.9 7.2 43.4 22.8l9.1 9.2-.1-70.9c-.1-39-.4-71.6-.7-72.4-.5-1.3-4.3 0-21.1 7.1zM264.3 305.1v72.1l4.1-4.8c17.1-20.2 33.3-28.3 54.6-27.1 15.1.8 24.2 4.4 38.8 15.5 4 3 7.4 5.3 7.6 5.1.8-1 26.6-45 29.5-50.3 1.7-3.2 4.1-8.5 5.2-11.8 1.8-5.5 1.9-6.2.5-8.4-3.1-4.7-14.2-9.9-77.1-36.4-22.5-9.5-45.6-19.2-51.3-21.6-5.7-2.4-10.7-4.4-11.1-4.4-.5 0-.8 32.4-.8 72.1z"/><path d="M60.8 357.7c-4.2.7-5.7 3.6-5.4 10.4.3 7 2.1 9.4 8 11 9 2.4 16.5 7 27.3 16.9 14.9 13.5 23.6 18 36.3 18.6 15.7.7 26.2-4.3 44.2-21.1 9.4-8.8 13.8-11.5 19.9-12.2 4.9-.6 12.4 1.4 15.2 4 .6.7 5 4.6 9.7 8.7 4.7 4.1 8.7 7.8 9 8.1.3.3 2.9 2.2 5.8 4.2 14.1 9.6 32 11 46.2 3.7 5.3-2.7 13.6-9 20-15 12.3-11.7 18-14.6 26.7-13.5 5.7.7 9.4 3 18.8 11.6 15.5 14.2 23.2 19 33.6 20.9 16.2 2.9 29.5-2 45.8-16.7 9.5-8.6 17.1-14.1 21.9-15.8 2.3-.8 6.2-2.2 8.6-3 2.4-.9 4.6-2.4 4.8-3.3.7-2.5.4-15-.4-15.7-2.9-2.9-20.3-2.7-27.1.3-5.2 2.3-14.6 9.2-21.7 15.8-15 14-22.4 17.2-30.5 13.1-4.5-2.2-6.8-4-17.8-14.1-8.2-7.6-17.8-13.9-23.6-15.7-6-1.9-24.4-2-30.4-.2-6.4 1.8-16.2 8.3-24.3 16-8.6 8.2-11.4 10.5-15.6 13-9.8 5.8-15.3 3.8-31.3-11.2-17-15.9-27.7-20.3-46.6-19.2-13.8.8-20.2 4.7-43.9 26.5-1.4 1.2-4.8 3.4-7.6 4.8-9.2 4.5-14.8 1.8-33.3-15.6-.9-.8-3.7-3.1-6.1-5-2.5-1.9-4.7-3.7-5-4-1.6-1.7-7-4.4-10.9-5.5-4.7-1.2-15.3-1.6-20.3-.8z"/><path d="M185.7 408.2c-11.4 1.1-17.4 4.5-33.2 18.6-8.2 7.3-15.8 12.2-21.3 13.7-10.3 2.7-14.1 6.8-12.9 14.1.8 4.7 4.1 7.1 10.7 8 7.1.9 15.8-.9 23.5-4.8 9.6-5 12.4-7.2 18.8-15.1 6.1-7.5 17.1-12.8 24.7-12 4.5.5 8.9 3.5 17.5 11.8 16.4 15.8 24.4 19.6 42.6 20.1 7.9.3 13.1-.1 16.1-1 6.4-1.9 15.1-7.9 23.4-16.1 8.6-8.5 11.5-10.7 17.4-12.8 10.7-4 14.9-2.6 28.1 9.8 14.8 13.8 24.2 19.1 36 20.2 12.9 1.1 19.2-2.4 19.2-10.8 0-6-4.5-9.9-13.4-11.4-5.9-1.1-11.4-4.5-20-12.6-15.9-15-26.1-20-41.4-20-17.1-.1-28.1 5.1-43.5 20.6-3.6 3.6-8.9 7.7-11.8 9.1-10.1 5.1-17.5 2.8-30.3-9.2-10.5-9.7-18.4-15.6-24-17.7-6-2.2-18-3.4-26.2-2.5z"/></svg>