<svg id="map" xmlns="http://www.w3.org/2000/svg" xmlns:xlink="http://www.w3.org/1999/xlink" version="1.1" x="0px" y="0px" viewBox="0 0 284 284" style="enable-background:new 0 0 284 284;" xml:space="preserve">
<path d="M98.833,60.25c0,9.512-7.738,17.25-17.25,17.25s-17.25-7.738-17.25-17.25S72.071,43,81.583,43S98.833,50.738,98.833,60.25z   M284,9v266c0,4.143-3.024,7.5-7.167,7.5H70.983c-1.753,0-3.451-0.614-4.799-1.736L2.868,228.187C1.156,226.762,0,224.649,0,222.423  V9c0-4.143,3.69-7.5,7.833-7.5h269C280.976,1.5,284,4.857,284,9z M246.333,85c0-17.921-14.579-32.5-32.5-32.5H112.885  C109.405,38.449,96.694,28,81.583,28c-17.782,0-32.25,14.468-32.25,32.25S63.801,92.5,81.583,92.5c15.289,0,28.118-10.699,31.418-25  h100.832c9.649,0,17.5,7.851,17.5,17.5s-7.851,17.5-17.5,17.5h-84.666C103.895,102.5,83,123.061,83,148.333v43.834  c0,22.239,18.427,40.333,40.667,40.333h47.059l-7.349,7.349c-2.929,2.93-2.929,7.678,0,10.607c1.465,1.464,3.384,2.196,5.304,2.196  c1.919,0,3.839-0.732,5.304-2.196l14.849-14.849l14.849,14.849c1.465,1.464,3.385,2.196,5.304,2.196s3.839-0.732,5.304-2.196  c2.929-2.93,2.929-7.678,0-10.607L199.441,225l14.849-14.849c2.929-2.93,2.929-7.678,0-10.607c-2.93-2.927-7.678-2.929-10.607,0  l-14.849,14.849l-14.849-14.849c-2.93-2.928-7.678-2.928-10.607,0c-2.929,2.93-2.929,7.678,0,10.607l7.349,7.349h-47.059  C109.698,217.5,98,206.136,98,192.167v-43.834c0-17.001,14.165-30.833,31.167-30.833h84.666  C231.754,117.5,246.333,102.921,246.333,85z"/>
</svg>