<svg xmlns="http://www.w3.org/2000/svg" xmlns:xlink="http://www.w3.org/1999/xlink" width="610" height="574" class="map__svg" version="1.1" viewBox="0 200 610 574"><symbol id="boat"><svg xmlns="http://www.w3.org/2000/svg" width="2rem" height="2rem" version="1.1" viewBox="0 0 235 235"><g id="Page-1" fill="none" fill-rule="evenodd" stroke="none" stroke-width="1"><g id="SVG-Layer"><g id="Group" transform="matrix(1 0 0 -1 0 235)"><circle id="Oval" cx="117.5" cy="117.5" r="117.5" fill="rgba(255, 255, 255, .8)"/><path id="Shape" fill="#000" fill-rule="nonzero" d="M107.7 211.4c-.4-.4-.7-2.7-.7-5.1V202h20.1l-.3 4.8-.3 4.7-9 .3c-5 .1-9.4 0-9.8-.4zM107 192v-6h20v12h-20zM91.7 179.4c-.4-.4-.7-3.6-.7-7.1V166h52.1l-.3 6.8-.3 6.7-25.1.3c-13.8.1-25.3-.1-25.7-.4zM79.7 159.3c-.4-.3-.7-7.9-.7-16.9v-16.2l17.6 7.4c9.6 4.1 18.8 7.4 20.4 7.4 1.6 0 10.8-3.3 20.5-7.4l17.5-7.4-.2 16.6-.3 16.7-37.1.3c-20.4.1-37.3-.1-37.7-.5z"/><path id="Shape" fill="#000" fill-rule="nonzero" d="M84.5 123.5c-27-11.4-29-12.5-29.3-15-.3-1.9 1.9-6.3 7.4-15.5l7.8-12.8 3.7 2.9c5.3 4.2 10.4 6 16.5 6 7 0 13.2-2.8 18.8-8.7l4.6-4.8v30.2c0 16.6-.1 30.2-.2 30.1-.2-.1-13.3-5.6-29.3-12.4zM120 105.7V75.6l3.4 4c9.8 11.5 25.3 12.7 37.1 3l3.1-2.5 7.7 13c5.5 9 7.7 13.7 7.5 15.5-.3 2.4-2.7 3.6-29.5 14.9L120 135.8v-30.1z"/><path id="Shape" fill="#000" fill-rule="nonzero" d="M33.4 82.6c-.3-.8-.4-2.7-.2-4.3.3-2.4.9-3 4.4-3.8 2.8-.7 6-2.7 9.8-6.3 6.4-6 10.8-8.2 16.6-8.2 5.9 0 10.3 2.2 16.9 8.5 4.9 4.7 6.3 5.5 9.6 5.5s4.7-.8 9.6-5.5c6.6-6.3 11-8.5 16.9-8.5 5.9 0 10.3 2.2 16.9 8.5 4.9 4.7 6.3 5.5 9.6 5.5s4.7-.8 9.6-5.5c6.6-6.3 11-8.5 16.9-8.5 5.8 0 10.2 2.2 16.6 8.2 3.8 3.6 7 5.6 9.8 6.3 4 1 4.1 1.1 4.1 5 0 3.8-.1 4-3.4 4.3-6.7.7-9.8-.7-17.1-7.3-9.1-8.4-11-8.5-18.8-1.1-7.3 6.9-10.8 8.6-17.6 8.6-7.4 0-9.6-1-17.1-8-8.5-7.9-10.6-8-18.3-.6-7.3 6.9-10.8 8.6-17.6 8.6-7.4 0-9.6-1-17.1-8-8.6-8-10.4-8-19 0-3.6 3.3-7.7 6.5-9.1 7-3.9 1.5-11.4 1.3-12-.4z"/><path id="Shape" fill="#000" fill-rule="nonzero" d="M81.5 61.3c-1.6-.9-5.3-3.7-8.1-6.4-2.9-2.6-6.5-5.1-8-5.4-4.4-.9-5.9-2-6.2-4.4-.5-3.5 1.6-5.1 6.8-5.1 5.1 0 12.5 4 15.3 8.4 2.1 3.1 8 5.8 11.1 5 1.4-.3 4.2-2.4 6.3-4.6 6.3-6.6 11-8.8 18.5-8.8 5.4 0 7.2.4 10.6 2.8 2.2 1.5 5 3.9 6.1 5.3 2.7 3.5 8.4 6.1 11.5 5.3 1.4-.3 4.2-2.4 6.3-4.6 5.6-5.8 11.2-8.8 16.4-8.8 5 0 6.9 1.3 6.9 4.6 0 2.7-1.6 4-6 4.8-2.4.4-5 2.1-8 5.2-6.1 6.2-10.7 8.4-17.5 8.4-6.6 0-11.5-2.2-16.5-7.5-7.5-7.9-12.1-8.1-19.1-.9-2.4 2.5-6.1 5.4-8.1 6.5-4.6 2.4-14 2.5-18.3.2z"/></g></g></g></svg></symbol><g id="Page-1" fill="none" fill-rule="evenodd" stroke="none" stroke-width="1"><g id="map-routes"><g id="worldLow" fill="#CCC" fill-rule="nonzero"><path id="AE" stroke="#FFF" stroke-width=".5" d="M220.87 342.72l.5-.15.11.84 2.19-.48 2.32.08 1.69.09 1.92-2.07 2.1-1.98 1.77-1.9.53 1.05.38 2.44-1.43.01-.23 2 .5.42-1.27.6-.01 1.25-.82 1.26-.07 1.21-.57.64-8.42-1.52-1.08-3.08z"/><path id="AF" stroke="#FFF" stroke-width=".5" d="M247.88 305.9l2.86 1.3 2.11-.46.59-1.55 2.21-.52 1.58-1.05.56-2.79 2.36-.68.44-1.25 1.33.94.84.11 1.56.03 2.12.74.85.42 2.03-1.12.95.67.9-1.6 1.68.07.43-.52.3-1.43 1.21-1.23 1.51.8-.3 1.09.85.17-.27 2.95 1.11 1.15.98-.74 1.25-.34 1.74-1.57 1.93.26h2.9l.5 1.01-1.64.39-1.42.65-3.22.4-3.01.73-1.64 1.51.66 1.46.33 1.7-1.4 1.43.12 1.3-.77 1.22-2.67-.11 1.1 2.22-1.78.85-1.19 2 .15 1.98-1.1.92-1.03-.3-2.15.43-.3.91h-2.09l-1.56 1.84-.1 2.75-3.65 1.33-1.95-.28-.57.7-1.67-.4-2.81.48-4.69-1.64 2.54-2.93-.23-2.1-2.12-.55-.22-2.09-.92-2.64 1.2-1.83-1.22-.49.77-2.45z"/><path id="AL" stroke="#FFF" stroke-width=".5" d="M133.98 283.66l-.35 1.27.4 1.59 1.16.9-.06.97-.91.54-.17 1.19-1.3 1.76-.48-.25-.05-.8-1.56-1.23-.24-1.75.24-2.53.38-1.16-.47-.59-.19-1.19 1.22-1.87.17.72.76-.34.6 1.02.67.38z"/><path id="AM" stroke="#FFF" stroke-width=".5" d="M198.45 286.5l3.9-.58.58.98 1.07.64-.57.92 1.5 1.26-.79 1.16 1.19.99 1.26.59.06 2.5-1.02.1-1.14-2.08.01-.55-1.24.01-.83-.98-.58.1-1.11-1.06-2.08-.91.27-1.79z"/><path id="AO" stroke="#FFF" stroke-width=".5" d="M122.03 428.78l.69 2.09.8 1.68.64.91 1.07 1.47 1.85-.23.93-.4 1.55.4.42-.7.7-1.64 1.74-.11.15-.49 1.43-.01-.24 1.01 3.4-.02.05 1.77.57 1.09-.41 1.7.21 1.74.94 1.05-.15 3.37.69-.26 1.22.07 1.74-.42 1.28.17.3.88-.32 1.38.49 1.34-.42 1.07.24.99-5.84-.04-.13 9.16 1.89 2.38 1.83 1.82-5.15 1.19-6.79-.41-1.94-1.4-11.37.13-.42.21-1.67-1.32-1.82-.09-1.68.5-1.35.56-.26-1.83.39-2.55.97-2.65.15-1.24.91-2.59.67-1.17 1.61-1.87.9-1.27.29-2.11-.15-1.61-.84-1.01-.75-1.72-.69-1.69.15-.59.86-1.12-.85-2.72-.57-1.88-1.4-1.77.27-.54 1.16-.38.81.05.98-.34 8.27.01zm-10.91-.54l-.71.3-.75-2.1 1.13-1.21.85-.47 1.05.96-1.02.59-.46.72-.09 1.21z"/><path id="AT" stroke="#FFF" stroke-width=".5" d="M123.86 258.85l-.21 1.71-1.58.01.54.89-.93 2.65-.53.69-2.45.1-1.42.92-2.32-.31-4.01-1.05-.62-1.43-2.77.72-.33.77-1.7-.58-1.43-.11-1.27-.74.43-1.01-.11-.74.85-.22 1.42 1.14.4-1.09 2.47.18 2.01-.74 1.34.12.87.85.27-.7-.4-2.72 1.01-.54.98-1.95 2.09 1.37 1.57-1.74.99-.32 2.18 1.3 1.31-.22 1.3.8-.23.54z"/><path id="AU" stroke="#FFF" stroke-width=".5" d="M483.93 537.16l2.71 1.28 1.53-.51 2.19-.71 1.68.25.2 4.43-.96 1.3-.29 3.06-.98-1.05-1.95 2.67-.58-.21-1.72-.12-1.73-3.28-.38-2.5-1.62-3.25.07-1.7 1.83.34zm-5.15-86.06l1.01 2.25 1.8-1.08.93 1.22 1.35 1.13-.29 1.28.6 2.48.43 1.45.71.35.76 2.5-.27 1.52.91 1.99 3.04 1.54 1.98 1.41 1.88 1.29-.37.72 1.6 1.87 1.09 3.25 1.12-.66 1.14 1.31.69-.46.48 3.21 1.99 1.87 1.3 1.17 2.19 2.49.79 2.49.07 1.77-.19 1.94 1.34 2.68-.16 2.81-.49 1.48-.76 2.87.06 1.86-.55 2.34-1.24 3-2.08 1.63-1.02 2.59-.94 1.67-.83 2.93-1.08 1.71-.71 2.58-.36 2.4.14 1.11-1.61 1.22-3.14.13-2.59 1.45-1.29 1.38-1.69 1.54-2.32-1.58-1.72-.63.44-1.85-1.53.67-2.46 2.58-2.42-.97-1.59-.56-1.6-.25-2.71-1.03-1.81-2.18-.52-2.66-.65-1.75-1.38-1.4-2.7-.41.92-1.66-.68-2.52-1.37 2.35-2.5.63 1.47-1.88.42-1.95 1.08-1.65-.22-2.47-2.28 2.85-1.75 1.15-1.07 2.69-2.19-1.4.09-1.79-1.75-2.43-1.48-1.25.53-.77-3.6-2-1.97-.09-2.7-1.6-5.02.31-3.63 1.18-3.19 1.1-2.68-.22-2.97 1.7-2.43.77-.54 1.75-1.04 1.36-2.38.08-1.76.3-2.48-.61-2.02.37-1.92.15-1.67 1.8-.82-.15-1.41.96-1.35 1.08-2.05-.13h-1.88l-2.97-2.17-1.51-.64.06-1.93 1.39-.46.48-.76-.1-1.2.34-2.3-.31-1.95-1.48-3.29-.46-1.85.12-1.83-1.12-2.08-.07-.93-1.24-1.26-.35-2.47-1.6-2.48-.39-1.33 1.23 1.35-.95-2.88 1.39.9.83 1.2-.05-1.59-1.39-2.43-.27-.97-.65-.92.3-1.77.57-.75.38-1.52-.3-1.77 1.16-2.17.21 2.29 1.18-2.07 2.28-1 1.37-1.28 2.14-1.1 1.27-.23.77.37 2.21-1.11 1.7-.33.42-.65.74-.27 1.55.07 2.95-.87 1.52-1.31.72-1.58 1.64-1.49.13-1.17.07-1.59 1.96-2.47 1.18 2.51 1.19-.58-1-1.38.88-1.41 1.24.63.34-2.21 1.53-1.42.68-1.14 1.41-.49.04-.8 1.23.34.05-.72 1.23-.41 1.36-.39 2.07 1.32 1.56 1.71 1.75.02 1.78.27-.59-1.58 1.34-2.3 1.26-.75-.44-.71 1.22-1.63 1.7-1.01 1.43.34 2.36-.54-.05-1.45-2.05-.94 1.49-.41 1.86.7 1.49 1.17 2.36.73.8-.29 1.74.88 1.64-.82 1.05.25.66-.55 1.29 1.41-.75 1.53-1.06 1.16-.96.1.33 1.15-.82 1.43-1 1.41.2.81 2.23 1.6 2.16.93 1.44 1 2.03 1.72h.79l1.47.75.43.9 2.68.99 1.85-1 .55-1.57.57-1.29.35-1.59.85-2.3-.39-1.39.2-.84-.32-1.64.37-2.16.54-.58-.44-.95.68-1.51.53-1.56.07-.81 1.04-1.06.79 1.39.19 1.78.7.34.12 1.2 1.02 1.45.21 1.62-.08 1.01z"/><path id="AZ" stroke="#FFF" stroke-width=".5" d="M202.43 291.46l.83.97 1.24-.01-.01.56 1.14 2.08-1.92-.48-1.42-1.66-.44-1.37.58-.09zm6.65-5.43l1.24.25.48-.95 1.67-1.51 1.47 1.97 1.43 2.62 1.31.17.86.99-2.31.29-.49 2.82-.48 1.26-1.03.84.08 1.77-.7.18-1.75-1.87.97-1.78-.83-1.06-1.05.27-3.31 2.66-.06-2.5-1.26-.59-1.19-.99.79-1.16-1.49-1.26.56-.92-1.07-.64-.58-.97.69-.61 2.09 1.07 1.51.22.38-.43-1.38-2.02.73-.52.79.13 1.93 2.27z"/><path id="BA" stroke="#FFF" stroke-width=".5" d="M129.54 272.11l1.02-.01-.7 1.72 1.35 1.5-.41 1.82-.66.17-.53.36-.91.89-.41 2.1-2.48-1.44-1.06-1.61-1.07-.85-1.29-1.45-.6-1.21-1.38-1.83.59-1.64 1.01.91.6-.82 1.31-.09 2.41.66 1.94-.06z"/><path id="BD" stroke="#FFF" stroke-width=".5" d="M336.09 349.41l-.05 2.15-.98-.46.18 2.41-.8-1.56-.16-1.52-.54-1.45-1.17-1.76-2.58-.12.26 1.25-.88 1.67-1.2-.61-.41.55-.79-.33-1.08-.27-.44-2.48-.97-2.28.47-1.84-1.72-.82.62-1.12 1.75-1.15-2.02-1.63.99-2.11 2.22 1.34 1.34.16.25 2.15 2.66.42 2.61-.05 1.61.53-1.29 2.59-1.26.18-.86 1.73 1.53 1.58.46-1.94.78-.01z"/><path id="BE" stroke="#FFF" stroke-width=".5" d="M85.55 244.91l2.05.35 2.6-.93 1.77 1.95 1.55 1.04-.32 2.97-.73.16-.31 2.43-2.45-1.97-1.44.34-1.96-2.06-1.3-1.77-1.3-.07-.41-1.56z"/><path id="BF" stroke="#FFF" stroke-width=".5" d="M68.33 385.4l-1.92-.73-1.32.11-.98.71-1.26-.6-.49-.93-1.26-.62-.19-1.64.77-1.21-.07-.96 2.23-2.36.41-1.96.77-.7 1.36.38 1.17-.58.38-.74 2.18-1.28.53-.9 2.62-1.2 1.55-.41.7.55 1.79-.01-.22 1.4.38 1.31 1.58 1.87.08 1.38 3.24.65-.07 1.95-.61.86-1.37.26-.57 1.24-.96.32-2.46-.06-1.3-.22-.9.46-1.24-.21-4.87.13-.07 1.61z"/><path id="BG" stroke="#FFF" stroke-width=".5" d="M139.78 274.56l.81 1.6 1.08-.29 2.16.61 4.12.2 1.39-.99 3.3-.9 2.04 1.41 1.65.41-1.46 1.59-1.02 2.73.9 2.16-2.41-.51-2.86 1.18-.03 1.86-2.55.35-1.97-1.3-2.25 1.03-2.07-.11-.2-2.47-1.41-1.21.47-.54-.31-.45.47-1.21 1.07-1.19-1.36-1.66-.25-1.42z"/><path id="BI" stroke="#FFF" stroke-width=".5" d="M158.52 424.93l-.18-3.37-.71-1.26 1.71.22.86-1.59 1.49.18.16 1.1.6.63.03.91-.69.58-1.1 1.46-1.01 1.01z"/><path id="BJ" stroke="#FFF" stroke-width=".5" d="M83.8 394.92l-2.32.33-.69-1.94.13-6.46-.57-.58-.1-1.39-.98-.99-.85-.83.36-1.5.96-.32.57-1.24 1.37-.26.61-.86.94-.83 1.01-.01 2.14 1.64-.11.95.63 1.68-.55 1.14.29.76-1.36 1.75-.86.87-.53 1.77.07 1.79z"/><path id="BN" stroke="#FFF" stroke-width=".5" d="M396.46 399.77l1.11-1.05 2.39-1.53-.13 1.38-.16 1.78-1.34-.09-.59.95z"/><path id="BT" stroke="#FFF" stroke-width=".5" d="M333.36 331.78l1.14 1-.2 1.93-2.29.09-2.36-.21-1.77.49-2.55-1.19-.05-.63 1.85-2.34 1.51-.8 2.01.73 1.48.08z"/><path id="BW" stroke="#FFF" stroke-width=".5" d="M148.17 464.95l.56.52.89 1.71 3.17 3.25 1.2.32.01 1.05.82 1.9 2.17.46 1.79 1.36-3.97 2.22-2.52 2.26-.93 2.03-.84 1.15-1.53.25-.49 1.47-.29.96-1.79.72-2.28-.15-1.34-.86-1.18-.38-1.37.72-.69 1.48-1.33.93-1.4 1.39-2.01.32-.62-1.09.26-1.9-1.67-2.93-.75-.46v-8.86l2.76-.11.08-10.57 2.09-.09 4.32-1.03 1.08 1.21 1.78-1.15.86-.01 1.58-.66.5.22z"/><path id="BY" stroke="#FFF" stroke-width=".5" d="M142.1 233.07l2.71.04 3.04-1.8.65-2.72 2.3-1.57-.26-2.2 1.7-.84 3.02-1.93 2.95 1.26.4 1.23 1.47-.59 2.74 1.18.27 2.31-.6 1.32 1.76 3.15 1.14.87-.17.86 1.89.83.81 1.25-1.09 1.02-2.26-.16-.54.44.66 1.54.69 2.93-2.41.27-.86 1-.19 2.26-1.11-.43-2.53.22-.74-1.05-1.05.78-1.05-.65-2.21-.09-3.13-1.08-2.83-.36-2.17.1-1.54 1.23-1.34.17-.05-2.01-.87-2.12 1.68-.94.02-1.85-.78-1.78z"/><path id="CD" stroke="#FFF" stroke-width=".5" d="M162.71 402.61l-.17 3.26 1.12.37-.9.99-1.08.74-1.07 1.46-.59 1.29-.16 2.24-.65 1.06-.02 2.1-.81.78-.1 1.66-.39.21-.26 1.53.71 1.26.18 3.37.5 2.57-.28 1.46.56 1.62 1.63 1.57 1.51 3.55-1.1-.29-3.77.48-.75.33-.8 1.8.63 1.25-.5 3.35-.35 2.85.76.51 1.96 1.1.77-.51.24 3.08-2.15-.03-1.15-1.57-1.03-1.22-2.15-.4-.63-1.49-1.72.9-2.24-.4-.94-1.29-1.78-.26-1.31.07-.16-.88-.97-.07-1.28-.17-1.73.42-1.22-.07-.7.26.15-3.37-.93-1.05-.21-1.73.41-1.7-.56-1.09-.05-1.76-3.41.02.25-1.01-1.43.01-.15.49-1.74.11-.71 1.63-.42.71-1.55-.4-.92.4-1.86.22-1.07-1.47-.64-.91-.81-1.68-.69-2.09-8.27-.03-.99.33-.81-.05-1.16.38-.39-.87.71-.3.09-1.22.46-.72 1.02-.58.74.28.96-1.07 1.52.03.18.79 1.05.5 1.65-1.76 1.63-1.36.71-.89-.09-2.3 1.22-2.71 1.28-1.43 1.85-1.34.32-.89.07-1.02.46-.97-.15-1.58.35-2.47.55-1.74.84-1.49.16-1.68.25-1.95 1.1-1.42 1.5-.9 2.31.95 1.78 1.03 2.05.28 2.09.54.84-1.68.39-.22 1.27.28 3.13-1.39 1.1.59.91-.08.42-.68 1.04-.24 2.11.29 1.8.06.93-.29 1.69 2.31 1.26.33.75-.47 1.3.19 1.56-.59.67 1.19z"/><path id="CF" stroke="#FFF" stroke-width=".5" d="M119.09 391.66l2.32-.22.52-.72.46.06.7.63 3.53-1.07 1.19-1.1 1.47-.99-.28-.99.79-.26 2.71.18 2.64-1.31 2.02-3.09 1.43-1.14 1.77-.49.32 1.22 1.62 1.77v1.15l-.45 1.18.18.87.97.81 2.14 1.24 1.53 1.13.03.92 1.88 1.46 1.17 1.21.71 1.68 2.1 1.11.45.89-.93.29-1.8-.06-2.11-.29-1.04.24-.42.68-.91.08-1.1-.59-3.13 1.39-1.27-.28-.39.22-.84 1.68-2.09-.54-2.05-.28-1.78-1.03-2.31-.95-1.5.9-1.1 1.42-.25 1.95-1.8-.16-1.9-.47-1.67 1.48-1.47 2.6-.3-.81-.12-1.27-1.28-.9-1.04-1.44-.24-1-1.32-1.46.22-.83-.28-1.18.22-2.17.67-.51z"/><path id="CG" stroke="#FFF" stroke-width=".5" d="M112.69 425.72l-1.05-.96-.85.47-1.13 1.2-2.3-2.95 2.13-1.54-1.05-1.85.96-.7 1.89-.34.22-1.24 1.5 1.34 2.48.12.86-1.32.35-1.85-.31-2.18-1.32-1.64 1.21-3.23-.7-.55-2.08.22-.79-1.43.21-1.22 3.53.11 2.27.73 2.23.66.2-1.5 1.47-2.6 1.67-1.48 1.9.47 1.8.16-.16 1.68-.84 1.49-.55 1.74-.35 2.47.15 1.58-.46.97-.07 1.02-.32.89-1.85 1.34-1.28 1.43-1.22 2.71.09 2.3-.71.89-1.63 1.36-1.65 1.76-1.05-.5-.18-.79-1.52-.03-.96 1.07z"/><path id="CH" stroke="#FFF" stroke-width=".5" d="M103.15 261.34l.11.74-.43 1.01 1.27.74 1.43.11-.22 1.67-1.23.69-2.08-.51-.61 1.63-1.33.13-.49-.64-1.57 1.36-1.35.19-1.21-.86-.96-1.77-1.34.64.04-1.84 2.05-2.31-.09-1.05 1.28.39.77-.71 2.38.03.58-.9z"/><path id="CI" stroke="#FFF" stroke-width=".5" d="M68.24 398.46l-1.27.03-1.96-.55-1.79.03-3.33.49-1.94.81-2.78 1.02-.54-.07.21-2.3.27-.35-.08-1.11-1.19-1.17-.89-.19-.82-.77.61-1.24-.28-1.36.13-.82h.45l.16-1.23-.22-.54.27-.39 1.04-.34-.69-2.26-.65-1.16.23-.97.56-.21.36-.26.78.42 2.16.03.52-.83.48.06.81-.32.44 1.21.65-.36 1.16-.42 1.26.62.49.93 1.26.6.98-.71 1.32-.11 1.92.73.74 4.01-1.18 2.36-.73 3.17 1.21 2.41z"/><path id="CM" stroke="#FFF" stroke-width=".5" d="M112.92 406.07l-.35-.15-1.66.36-1.71-.38-1.33.19-4.56-.07.41-2.2-1.1-1.84-1.28-.48-.57-1.25-.72-.4.04-.77.72-1.98 1.33-2.7.81-.03 1.67-1.64 1.07-.04 1.57 1.15 1.93-.95.26-1.16.63-1.14.43-1.42 1.5-1.16.57-1.97.59-.63.4-1.47.74-1.81 2.36-2.2.15-.95.31-.51-1.11-1.14.09-.9.79-.17 1.11 1.83.19 1.89-.1 1.89 1.52 2.57-1.56-.03-.79.2-1.28-.28-.61 1.33 1.65 1.65 1.22.48.4 1.17.88 1.93-.44.77-1.41 2.84-.67.51-.22 2.17.28 1.18-.22.83 1.32 1.46.24 1 1.04 1.44 1.28.9.12 1.27.3.81-.2 1.5-2.23-.66-2.27-.73z"/><path id="CN" stroke="#FFF" stroke-width=".5" d="M385.63 359.41l-2.42 1.41-2.3-.91-.08-2.53 1.38-1.34 3.06-.83 1.61.07.63 1.13-1.23 1.3-.65 1.7zm48.56-107.52l4.88 1.38 3.32 3.03 1.13 3.95h4.26l2.43-1.65 4.63-1.24-1.47 3.76-1.09 1.51-.96 4.46-1.89 3.89-3.4-.7-2.41 1.4.74 3.36-.4 4.55-1.43.1.02 1.93-1.81-2.24-1.11 2.13-4.33 1.62.44 1.97-2.42-.14-1.33-1.17-1.93 2.64-3.09 1.98-2.28 2.35-3.92 1.06-2.06 1.69-3.02.98 1.49-1.67-.59-1.41 2.22-2.45-1.48-1.93-2.44 1.3-3.17 2.54-1.73 2.34-2.75.17-1.43 1.68 1.48 2.41 2.29.58.09 1.58 2.22 1.02 3.14-2.51 2.49 1.37 1.81.09.46 1.84-3.97.97-1.31 1.87-2.73 1.73-1.44 2.39 3.02 1.86 1.1 3.31 1.71 3.05 1.9 2.53-.05 2.43-1.76.89.67 1.73 1.65 1-.43 2.61-.71 2.52-1.57.28-2.05 3.41-2.27 4.09-2.6 3.68-3.86 2.82-3.9 2.55-3.16.35-1.71 1.34-.97-.98-1.59 1.5-3.92 1.5-2.97.46-.96 3.15-1.55.17-.74-2.16.66-1.16-3.76-.96-1.33.49-2.82-.78-1.33-1.22.44-1.74-2.56-.55-1.35-1.14-2.39 1.62-2.73.35-2.24-.02-1.5.74-1.45.44.42 3.43-1.5-.08-.25-.7-.08-1.24-2.06.87-1.21-.55-2.08-1.13.82-2.51-1.78-.59-.67-2.8-2.96.51.34-3.63 2.66-2.58.11-2.57-.08-2.4-1.22-.75-.94-1.86-1.64.24-3.02-.47.95-1.33-1.31-1.99-2 1.35-2.36-.78-3.23 2.03-2.55 2.36-2.26.39-1.23-.85-1.48-.08-2-.73-1.51.8-1.85 2.34-.24-2.48-1.71.66-3.27-.31-3.17-.73-2.28-1.39-2.18-.63-.94-1.53-1.58-.46-2.83-2.09-2.25-.99-1.16.77-3.9-2.26-2.75-2.07-.79-3.63 2.01.44.09-1.69-1.12-1.71.28-2.74-3.01-3.99-4.61-1.39-.83-2.66-2.07-1.63-.5-1.01-.42-2.01.1-1.38-1.7-.81-.92.36-.71-3.32.8-.83-.39-.85 2.68-1.73 1.94-.72 2.97.49 1.06-2.35 3.6-.44 1-1.48 4.42-2.03.39-.85-.22-2.17 1.92-1-2.52-6.75 5.55-1.58 1.44-.89 2.02-7.26 5.56 1.35 1.56-1.86.13-4.19 2.33-.39 2.13-2.83 1.1-.35.74 2.97 2.36 2.23 4 1.57 1.93 3.32-1.08 4.73 1.01 1.73 3.33.68 3.78.55 3.39 2.45 1.73.43 1.28 3.57 1.65 2.27 3.09-.09 5.79.85 3.73-.53 2.77.57 4.15 2.29h3.39l1.24 1.16 3.26-2.01 4.53-1.31 4.2-.14 3.28-1.34 2.01-2.05 1.96-1.3-.45-1.28-.9-1.5 1.47-2.54 1.58.36 2.88.8 2.79-2.1 4.28-1.55 2.05-2.66 1.97-1.16 4.07-.54 2.21.46.31-1.45-2.54-2.89-2.25-1.33-2.16 1.54-2.77-.65-1.59.53-.72-1.71 1.98-4.23 1.37-3.25 3.37 1.63 3.95-2.74-.03-1.93 2.53-4.73 1.56-1.45-.04-2.52-1.54-1.1 2.32-2.31 3.48-.84 3.72-.13 4.2 1.39 2.46 1.71 1.73 4.61 1.05 1.94.98 2.73 1.05 4.31z"/><path id="CY" stroke="#FFF" stroke-width=".5" d="M171.31 307.29l1.89-1.46-2.55 1.02-2.02-.05-.4.83-.2.02-1.33.12.65 1.37 1.37.44 2.88-1.38-.09-.27z"/><path id="CZ" stroke="#FFF" stroke-width=".5" d="M123.81 256.86l-1.3-.8-1.31.22-2.18-1.3-.99.32-1.57 1.74-2.09-1.37-1.58-1.83-1.43-1.04-.3-1.82-.49-1.3 2.04-.95 1.04-1.1 2.01-.86.71-.84.74.51 1.25-.47 1.33 1.43 2.09.39-.17 1.21 1.52.9.42-1.13 1.92.49.27 1.37 2.08.26 1.29 2.13-.83.01-.44.77-.64.19-.18.97-.54.21-.08.39-.95.44-1.25-.07z"/><path id="DE" stroke="#FFF" stroke-width=".5" d="M104.07 227.92l.05 1.88 2.84 1.12-.03 1.7 2.85-.9 1.57-1.31 3.17 1.89 1.32 1.51.66 2.39-.78 1.25 1.01 1.65.7 2.45-.22 1.56 1.15 2.86-1.25.47-.74-.51-.71.84-2.01.86-1.04 1.1-2.04.95.49 1.3.3 1.82 1.43 1.04 1.58 1.83-.98 1.95-1.01.54.4 2.72-.27.7-.87-.85-1.34-.12-2.01.74-2.47-.18-.4 1.09-1.42-1.14-.85.22-3-1.26-.58.9-2.38-.03.35-2.98 1.42-2.9-4.04-.78-1.32-1.13.16-1.89-.56-.98.32-2.97-.48-4.69h1.69l.71-1.71.7-4.23-.53-1.58.55-1 2.34-.26.52 1.04 1.91-2.33-.64-1.79-.13-2.75 2.12.64z"/><path id="DJ" stroke="#FFF" stroke-width=".5" d="M197.05 376.72l.66.88-.09 1.19-1.6.68 1.21.77-1.04 1.52-.62-.5-.67.2-1.57-.05-.05-.86-.21-.79.94-1.33.99-1.26 1.2.25z"/><path id="DK" stroke="#FFF" stroke-width=".5" d="M111.83 224.84l-1.68 3.97-2.93-2.76-.39-2.05 4.11-1.66.89 2.5zm-4.98-4.25l-.69 1.9-.83-.55-2.02 3.59.76 2.39-1.79.74-2.12-.64-1.14-2.72-.08-5.12.47-1.38.8-1.54 2.47-.32.98-1.43 2.26-1.47-.1 2.68-.83 1.68.34 1.43 1.52.76z"/><path id="DZ" stroke="#FFF" stroke-width=".5" d="M109.9 345.08l-9.61 5.75-8.12 5.85-3.95 1.32-3.11.29-.03-1.88-1.3-.48-1.75-.85-.66-1.39-9.46-6.55-9.46-6.65-10.55-7.53.06-.61v-.21l-.03-3.75 4.53-2.36 2.8-.49 2.29-.86 1.08-1.62 3.28-1.29.12-2.41 1.62-.29 1.27-1.21 3.67-.56.51-1.28-.74-.71-.97-3.53-.16-2.05-1.06-2.18 2.69-1.87 3.04-.6 1.77-1.43 2.7-1.05 4.75-.62 4.64-.29 1.41.52 2.64-1.37 3-.03 1.14.81 1.91-.21-.57 1.79.45 3.28-.66 2.82-1.73 1.88.25 2.53 2.29 1.98.03.81 1.72 1.33 1.2 5.86.91 2.84.15 1.48-.49 2.59.2 1.44-.36 1.72.25 1.97-1.12 1.29 1.66 2.26.11 1.32.99 1.71 1.31-.56 2.22 1.42z"/><path id="EE" stroke="#FFF" stroke-width=".5" d="M144.42 213.71l.33-3.12-1.03.67-1.78-1.9-.25-3.11 3.55-1.53 3.53-.81 3.04.92 2.9-.17.42.96-1.99 3.14.83 4.96-1.2 1.66-2.32-.01-2.41-1.94-1.23-.65z"/><path id="EG" stroke="#FFF" stroke-width=".5" d="M174.17 326.28l-.79 1.29-.6 2.4-.76 1.64-.66.56-.93-1.02-1.27-1.42-2-4.57-.28.29 1.16 3.37 1.72 3.18 2.12 4.88 1.03 1.68.9 1.74 2.52 3.4-.56.53.09 1.97 3.27 2.71.49.62H146.35v-22.41l-.84-2.58.72-2-.43-1.39 1.01-1.57 3.73-.05 2.7.86 2.78.97 1.3.5 2.16-1.03 1.15-.93 2.48-.27 1.99.41.77 1.62.65-1.07 2.24.77 2.19.19 1.38-.82z"/><path id="EH" stroke="#FFF" stroke-width=".5" d="M39.57 332.06l3.62.01 8.75.03-8.75-.03-3.62-.01-.11.09-.05.04-1.78 3.2-1.86 1.14-1.02 1.91-.06 1.65-.75 1.79-.94.49-1.56 1.94-.96 2.15.18 1.02-.92 1.57-1.08.82-.13 1.39-.12 1.27.61-1 10.98.02-.53-4.35.69-1.55 2.62-.27-.09-7.86 9.21.17v-4.73l.06-.61v-.21z"/><path id="ER" stroke="#FFF" stroke-width=".5" d="M195 377.17l-.96-.93-1.15-1.67-1.24-.92-.73-1-2.44-1.15-1.92-.03-.68-.61-1.64.68-1.7-1.31-.88 2.15-3.26-.6-.3-1.15 1.21-4.25.27-1.93.88-.9 2.07-.48 1.42-1.67 1.63 3.38.77 2.67 1.54 1.41 3.82 2.72 1.56 1.64 1.52 1.66.88.98 1.38.86-.85.7z"/><path id="ES" stroke="#FFF" stroke-width=".5" d="M50.92 283.56l.14-2.68-1.14-1.66 3.96-2.77 3.43.7 3.77-.03 2.98.66 2.33-.2 4.53.12 1.12 1.49 5.16 1.73 1.02-.82 3.16 1.72 3.25-.49.15 2.19-2.66 2.49-3.59.78-.25 1.24-1.73 2.03-1.08 2.96 1.09 2.05-1.62 1.6-.6 2.3-2.12.7-1.99 2.69-3.55.05-2.68-.06-1.75 1.22-1.07 1.31-1.38-.29-1.03-1.17-.8-2-2.62-.54-.23-1.16 1.04-1.32.38-.96-.96-1.06.77-2.35-1.12-2.17 1.21-.3.11-1.72.46-.53.03-2.88 1.3-1-.78-1.88-1.64-.13-.48.47-1.65.01-.71-1.84-1.14.55z"/><path id="ET" stroke="#FFF" stroke-width=".5" d="M182.54 370.23l1.7 1.31 1.64-.68.68.61 1.92.03 2.44 1.15.73 1 1.24.92 1.15 1.67.96.93-.99 1.26-.94 1.33.21.79.05.86 1.57.05.67-.2.62.5-.61 1.01 1.04 1.56 1.03 1.36 1.07 1.01 9.17 3.34 2.36-.02-7.93 8.42-3.65.12-2.5 1.97-1.79.05-.77.88h-1.92l-1.13-.94-2.56 1.17-.83 1.16-1.87-.22-.62-.32-.66.07-.88-.02-3.55-2.38h-1.95l-.96-.91v-1.57l-1.46-.47-1.65-3.05-1.28-.65-.5-1.12-1.42-1.37-1.72-.2.96-1.61 1.48-.07.42-.86-.03-2.53.83-2.96 1.32-.8.29-1.16 1.2-2.17 1.69-1.42 1.14-2.81.45-2.47 3.26.6z"/><path id="FI" stroke="#FFF" stroke-width=".5" d="M156.42 142.1l-.41 5.4 4.3 4.99-2.59 5.48 3.26 7.96-1.89 5.76 2.53 4.86-1.15 4.14 4.15 4.26-1.06 3.1-2.6 3.45-6 7.41-5.09.45-4.93 2.07-4.56 1.18-1.63-3.07-2.71-1.87.62-5.72-1.36-5.41 1.34-3.58 2.54-3.94 6.41-7.02 1.88-1.39-.3-2.84-3.9-3.22-.94-2.7-.08-11.12-4.37-5.15-3.74-3.81 1.68-2.08 3.12 4.15 3.66-.39 3.01 1.87 2.67-3.44 1.38-5.85 4.35-2.78 3.6 3.26z"/><path id="FJ" stroke="#FFF" stroke-width=".5" d="M581.53 457.61l-.35 1.4-.23.16-1.78.72-1.79.61-.36-1.09 1.4-.6.89-.16 1.64-.91.58-.13zm-5.84 4.31l-1.27-.36-1.08 1 .27 1.29 1.55.36 1.74-.4.46-1.53-.96-.84-.71.48z"/><path id="FR" stroke="#FFF" stroke-width=".5" d="M103.06 282.54l-.93 2.89-1.27-.76-.65-2.53.57-1.41 1.81-1.45.47 3.26zm-16.75-33.35l1.96 2.06 1.44-.34 2.45 1.97.63.37.81-.09 1.32 1.12 4.04.79-1.42 2.9-.36 2.98-.77.71-1.28-.38.09 1.05-2.05 2.3-.04 1.84 1.34-.63.96 1.77-.12 1.13.83 1.5-.97 1.21.72 3.04 1.52.49-.32 1.68-2.54 2.17-5.53-1.04-4.08 1.24-.32 2.29-3.25.49-3.15-1.72-1.02.82-5.16-1.73-1.12-1.49 1.45-2.32.53-7.88-2.89-4.26-2.07-2.09-4.29-1.6-.28-3.07 3.64-.92 4.71 1.09-.89-4.84 2.65 1.85 6.53-3.37.84-3.61 2.45-.9.41 1.56 1.3.07 1.3 1.79z"/><path id="GA" stroke="#FFF" stroke-width=".5" d="M107.36 423.48l-2.88-2.82-1.86-2.3-1.7-2.88.09-.92.61-.9.68-2.02.57-2.07.95-.16 4.07.03-.02-3.35 1.33-.19 1.71.38 1.66-.36.35.15-.21 1.22.79 1.43 2.08-.22.7.55-1.21 3.23 1.32 1.64.31 2.18-.35 1.85-.86 1.32-2.48-.12-1.5-1.34-.22 1.24-1.89.34-.96.7 1.05 1.85z"/><path id="GB" stroke="#FFF" stroke-width=".5" d="M60.38 230l-1.5 3.29-2.12-.98-1.73.07.58-2.57-.58-2.6 2.35-.2 3 2.99zm7.45-20.76l-3 5.73 2.86-.72 3.07.03-.73 4.22-2.52 4.53 2.9.32.22.52 2.5 5.79 1.92.77 1.73 5.41.8 1.84 3.4.88-.34 2.93-1.43 1.33 1.12 2.33-2.52 2.33-3.75-.04-4.77 1.21-1.31-.87-1.85 2.06-2.59-.5-1.97 1.67-1.49-.87 4.11-4.64 2.51-.97h-.02l-4.38-.75-.79-1.8 2.93-1.41-1.54-2.48.53-3.06 4.17.42.41-2.74-1.88-2.95-.04-.07-3.4-.85-.67-1.32 1.02-2.2-.92-1.37-1.51 2.34-.16-4.8-1.42-2.59 1.02-5.36 2.18-4.31 2.24.42 3.36-.41z"/><path id="GE" stroke="#FFF" stroke-width=".5" d="M192.76 284.85l.42-1.6-.7-2.57-1.62-1.41-1.55-.44-1.03-1.17.34-.46 2.37.66 4.13.62 3.82 1.83.49.71 1.7-.6 2.62.8.85 1.55 1.77.87-.73.51 1.38 2.02-.38.43-1.51-.22-2.09-1.06-.69.6-3.9.58-2.7-1.82z"/><path id="GH" stroke="#FFF" stroke-width=".5" d="M79.23 395.84l-4.4 1.64-1.56.96-2.53.81-2.5-.79.13-1.11-1.21-2.41.73-3.17 1.18-2.36-.74-4.01-.39-2.13.07-1.61 4.87-.13 1.24.21.9-.46 1.3.22-.21.89 1.17 1.46v2.05l.27 2.22.7 1.03-.62 2.53.22 1.4.75 1.78z"/><path id="GM" stroke="#FFF" stroke-width=".5" d="M29.03 375.43l.36-1.27 3.05-.09.64-.67.89-.05 1.1.71.87.01.93-.48.56.82-1.21.65-1.22-.05-1.2-.61-1.04.66-.5.03-.68.4z"/><path id="GN" stroke="#FFF" stroke-width=".5" d="M52.59 390.91l-.79-.07-.57 1.13-.8-.01-.54-.6.18-1.13-1.17-1.72-.73.31-.6.07-.77.16.03-1.03-.45-.74.09-.82-.61-1.19-.78-1.01h-2.24l-.65.53-.78.06-.48.61-.32.79-1.5 1.24-1.23-1.67-1.09-1.11-.72-.36-.7-.57-.31-1.25-.41-.62-.82-.47 1.25-1.38.85.05.73-.48h.62l.44-.38-.24-.94.31-.3.05-.97 1.35.03 2.02.7.62-.07.21-.31 1.52.22.41-.16.16 1.05.45-.01.73-.38.46.1.78.72 1.2.23.77-.62.91-.38.67-.4.56.08.62.62.34.79 1.15 1.19-.58.73-.11.92.6-.28.35.34-.15.84.86.82-.56.21-.23.97.65 1.16.69 2.26-1.04.34-.27.39.22.54-.16 1.23z"/><path id="GQ" stroke="#FFF" stroke-width=".5" d="M102.87 409.57l-.53-.42.97-3.13 4.56.07.02 3.35-4.07-.03z"/><path id="GR" stroke="#FFF" stroke-width=".5" d="M142.7 305.71l1.53 1.16 2.18-.19 2.09.24-.07.6 1.53-.41-.35 1.01-4.04.29.03-.56-3.42-.67.52-1.47zm8.15-20.96l-.87 2.33-.67.41-1.71-.1-1.46-.35-3.4.96 1.94 2.06-1.42.59h-1.56l-1.48-1.88-.53.8.63 2.18 1.4 1.7-1.06.79 1.56 1.65 1.39 1.03.04 2-1.36-1.15-1.24.21.83 1.8-.92.19-1-.69 1.2 3.95h-.58l-.45-1.25-.57-.02-.26 1.32-.45-.3.1-.74-.56-1.04h-.64l.12.84-.25.27-.62-.54-.38-1.01.52-.57-.36-.74-.41-.38-.42-.09-.49-.94.58-.52.36-.48.56.1.25-.41.59-.16.68.46.55.17.39-.62-.94-.08-.56-.19-1.25.28-1.22.05-1.09-1.64-.18-.25.17-.64-1.42-1.15-.19-1.03 1.3-1.76.17-1.19.91-.53.06-.97 1.83-.33 1.07-.81 1.52.07.46-.65.53-.12 2.07.11 2.25-1.02 1.98 1.3 2.55-.35.03-1.86 1.38.93z"/><path id="GW" stroke="#FFF" stroke-width=".5" d="M33.83 381.44l-1.5-1.19-1.18-.18-.64-.81.01-.43-.85-.6-.18-.61 1.49-.47.93.09.75-.32 5.18.12-.05.97-.31.3.24.94-.44.38h-.62l-.73.48-.85-.05z"/><path id="HR" stroke="#FFF" stroke-width=".5" d="M129.05 267.93l.68 1.55.89 1.14-1.08 1.49-1.27-.88-1.94.06-2.41-.66-1.31.09-.6.82-1.01-.91-.59 1.64 1.38 1.83.6 1.21 1.29 1.45 1.07.85 1.06 1.61 2.48 1.44-.31.64-2.63-1.4-1.63-1.38-2.56-1.14-2.36-2.85.57-.3-1.28-1.64-.06-1.34-1.8-.62-.86 1.71-.83-1.33.07-1.38.1-.06 1.95.14.52-.68.95.65 1.1.08-.01-1.12.97-.41.28-1.62 2.23-1.08.89.5 2.1 1.73 2.31.77z"/><path id="HU" stroke="#FFF" stroke-width=".5" d="M121.68 264.11l.93-2.65-.54-.89 1.58-.01.21-1.71 1.43 1.07 1.03.46 2.36-.51.22-.84 1.12-.13 1.36-.65.3.27L133 258l.66-1 .92-.25 3 1.28.6-.43 1.55 1.14.2 1.12-1.71.87-1.33 2.8-1.69 2.76-2.25.76-1.75-.17-2.15 1.05-1.05.6-2.31-.77-2.1-1.73-.89-.5-.55-1.37z"/><path id="ID" stroke="#FFF" stroke-width=".5" d="M414.72 441.06l-1.18.05-3.72-1.98 2.61-.56 1.47.86.98.86-.16.77zm10.43-.28l-2.4.62-.34-.34.25-.96 1.21-1.72 2.77-1.12.28.56.05.86-1.82 2.1zm-18.32-5.77l1.01.75 1.73-.23.7 1.2-3.24.57-1.94.38-1.51-.02.96-1.62 1.54-.02.75-1.01zm14.03-.01l-.41 1.56-4.21.8-3.73-.35-.01-1.03 2.23-.59 1.76.84 1.87-.21 2.5-1.02zm-40.04-3.69l5.37.28.62-1.16 5.2 1.35 1.02 1.82 4.21.51 3.44 1.67-3.2 1.07-3.08-1.13-2.54.08-2.91-.21-2.62-.51-3.25-1.07-2.06-.28-1.17.35-5.11-1.16-.49-1.21-2.57-.21 1.92-2.68 3.4.17 2.26 1.09 1.16.21.4 1.02zm73.18-1.58l-1.44 1.91-.27-2.11.5-1.01.59-.95.64.82-.02 1.34zm-20.96-7.71l-1.05.93-1.94-.51-.55-1.2 2.84-.13.7.91zm9.04-1.01l1.02 2.13-2.37-1.15-2.34-.23-1.58.18-1.94-.1.67-1.53 3.46-.12 3.08.82zm10.29-5.42l.78 4.51 2.9 1.67 2.34-2.96 3.22-1.68h2.49l2.4.97 2.08 1 3.01.53.05 9.1.05 9.16-2.5-2.31-2.85-.57-.69.8-3.55.09 1.19-2.29 1.77-.78-.73-3.05-1.35-2.35-5.44-2.37-2.31-.23-4.21-2.58-.83 1.36-1.08.25-.64-1.02-.01-1.21-2.14-1.37 3.02-1 2 .05-.24-.74-4.1-.01-1.11-1.66-2.5-.51-1.19-1.38 3.78-.67 1.44-.91 4.5 1.14.45 1.02zm-24.96-7.16l-2.25 2.76-2.11.54-2.7-.54-4.67.14-2.45.4-.4 2.11 2.51 2.48 1.51-1.26 5.23-.95-.23 1.28-1.22-.4-1.22 1.63-2.47 1.08 2.65 3.57-.51.96 2.52 3.22-.02 1.84-1.5.82-1.1-.98 1.36-2.29-2.75 1.08-.7-.77.36-1.08-2.02-1.64.21-2.72-1.87.85.24 3.25.11 4-1.78.41-1.2-.82.8-2.57-.43-2.69-1.18-.02-.87-1.91 1.16-1.83.4-2.21 1.41-4.2.59-1.15 2.38-2.07 2.19.82 3.54.39 3.22-.12 2.77-2.02.49.61zm9.67.8l-.15 2.43-1.45-.27-.43 1.69 1.16 1.47-.79.33-1.13-1.76-.83-3.56.56-2.23.93-1.01.2 1.52 1.66.24.27 1.15zm-30.32-1.94l3.14 2.58-3.32.33-.94 1.9.12 2.52-2.7 1.91-.06 2.77-1.08 4.27-.41-.99-3.19 1.26-1.11-1.71-2-.16-1.4-.89-3.33 1-1.02-1.35-1.84.15-2.31-.32-.43-3.74-1.4-.77-1.35-2.38-.39-2.44.33-2.58 1.67-1.85.47 1.86 1.92 1.57 1.81-.57 1.79.2 1.63-1.41 1.34-.24 2.65.78 2.29-.59 1.44-3.88 1.08-.97.97-3.17h3.22l2.43.47-1.59 2.52 2.06 2.64-.49 1.28zm-33.81 21.42l-3.1.06-2.36-2.34-3.6-2.28-1.2-1.69-2.12-2.27-1.39-2.09-2.13-3.9-2.46-2.32-.82-2.39-1.03-2.17-2.53-1.75-1.47-2.39-2.11-1.56-2.92-3.08-.25-1.42 1.81.11 4.34.54 2.48 2.73 2.17 1.89 1.55 1.16 2.66 3 2.85.04 2.36 1.91 1.62 2.33 2.13 1.27-1.12 2.27 1.61.97 1.01.07.48 1.94.98 1.56 2.06.25 1.36 1.76-.7 3.47-.16 4.32z"/><path id="IE" stroke="#FFF" stroke-width=".5" d="M58.88 233.29l.46 3.36-2.12 4.12-4.97 2.68-3.97-.68 2.27-4.78-1.46-4.77 3.81-3.75 2.12-2.27.58 2.6-.58 2.57 1.74-.06z"/><path id="IL" stroke="#FFF" stroke-width=".5" d="M176.41 315.82l-.49 1.05-1.02-.46-.58 2.2.7.36-.71.46-.13.86 1.32-.45.07 1.27-1.4 5.17-1.84-5.55.81-1.08-.19-.19.74-1.53.57-2.5.4-.84.08-.03h.94l.26-.58.75-.05.04 1.37-.38.5z"/><path id="IN" stroke="#FFF" stroke-width=".5" d="M294.5 306.44l3.01 3.99-.28 2.74 1.11 1.71-.09 1.69-2.01-.44.79 3.63 2.75 2.06 3.9 2.27-1.78 1.46-1.09 2.99 2.72 1.2 2.64 1.55 3.66 1.77 3.84.41 1.62 1.59 2.16.29 3.38.73 2.33-.05.32-1.24-.37-1.99.22-1.35 1.71-.67.24 2.48.05.63 2.55 1.19 1.77-.49 2.36.21 2.29-.09.2-1.93-1.14-1 2.26-.4 2.55-2.35 3.23-2.03 2.35.78 2-1.34 1.32 1.98-.95 1.34 3.02.47.22 1.2-.99.58.23 1.93-2-.57-3.63 2.16.08 1.78-1.54 2.6-.15 1.5-1.25 2.52-2.19-.7-.11 3.15-.63 1.03.3 1.28-1.39.72-1.47-4.8-.78.01-.46 1.94-1.53-1.58.86-1.73 1.26-.18 1.29-2.59-1.61-.53-2.61.05-2.66-.42-.25-2.15-1.34-.16-2.22-1.34-.99 2.11 2.02 1.63-1.75 1.15-.62 1.12 1.72.82-.47 1.84.97 2.28.44 2.48-.41 1.1-1.9-.04-3.46.62.16 2.25-1.5 1.76-4.03 2-3.14 3.46-2.11 1.85-2.79 1.91v1.34l-1.4.72-2.53 1.03-1.31.16-.84 2.2.58 3.75.15 2.37-1.18 2.71-.02 4.83-1.45.14-1.27 2.15.85.93-2.56.8-.94 1.92-1.13.81-2.65-2.63-1.3-3.96-1.08-2.86-.98-1.34-1.49-2.74-.69-3.58-.49-1.8-2.55-3.97-1.16-5.64-.84-3.77.01-3.58-.54-2.8-4.08 1.79-1.98-.36-3.66-3.63 1.35-1.09-.83-1.18-3.29-2.58 1.87-2.04 6.17.01-.56-2.64-1.57-1.56-.32-2.39-1.84-1.4 3.09-3.3 3.26.24 2.93-3.32 1.76-3.26 2.72-3.24-.04-2.33 2.39-1.91-2.27-1.63-.97-2.25-.99-2.95 1.37-1.46 4.26.83 3.12-.51z"/><path id="IQ" stroke="#FFF" stroke-width=".5" d="M203.61 304.77l1.83 1.04.22 2-1.42 1.17-.65 2.64 1.95 3.18 3.43 1.82 1.45 2.5-.46 2.37h.89l.03 1.73 1.55 1.69-1.66-.15-1.89-.27-2.06 3.08-5.21-.26-7.9-6.49-4.18-2.29-3.38-.89-1.13-4.04 6.21-3.5 1.06-4.12-.27-2.52 1.54-.86 1.44-2.18 1.2-.55 3.26.46.99.89 1.34-.59z"/><path id="IR" stroke="#FFF" stroke-width=".5" d="M227.44 300.53l2.47-.68 1.99-2.02 1.87.1 1.23-.66 2 .33 3.1 1.79 2.24.39 3.2 3.09 2.09.12.25 2.91-1.14 4.25-.77 2.45 1.22.49-1.2 1.83.92 2.64.22 2.09 2.12.55.23 2.1-2.54 2.93 1.38 1.68 1.13 1.93 2.68 1.4.08 2.77 1.34.51.23 1.44-4.04 1.61-1.06 3.6-5.27-.93-3.06-.71-3.16-.41-1.2-3.81-1.34-.56-2.16.56-2.82 1.51-3.43-1.03-2.83-2.41-2.7-.9-1.87-3.01-2.07-4.27-1.51.52-1.78-1.07-1.05 1.26-1.55-1.69-.03-1.73h-.89l.46-2.37-1.45-2.5-3.43-1.82-1.95-3.18.65-2.64 1.42-1.17-.22-2-1.83-1.04-1.82-4.14-1.53-2.83.54-1.09-.87-4.12 1.92-1.03.44 1.37 1.42 1.66 1.92.47 1.02-.1 3.31-2.66 1.05-.27.82 1.07-.96 1.78 1.75 1.86.69-.17.89 2.61 2.66.73 1.95 1.76 3.98.6 4.38-.92z"/><path id="IS" stroke="#FFF" stroke-width=".5" d="M35.57 161.43l-.64 4.48 3.16 4.6-3.64 5.01-8.09 4.38-2.42 1.15-3.69-.93-7.82-2.01 2.76-2.84-6.1-3.2 4.96-1.28-.12-1.97-5.88-1.57 1.89-4.47 4.25-1.03 4.37 4.68 4.26-3.75 3.53 1.96 4.57-3.71z"/><path id="IT" stroke="#FFF" stroke-width=".5" d="M119.77 296.88l-1.01 2.78.42 1.09-.59 1.79-2.14-1.31-1.43-.38-3.91-1.79.39-1.82 3.28.32 2.86-.39 2.13-.29zm-17.69-10.82l1.68 2.62-.39 4.81-1.27-.23-1.14 1.2-1.06-.95-.11-4.38-.64-2.1 1.54.19 1.39-1.16zm8.87-21.6l4.01 1.05-.3 1.99.67 1.71-2.23-.58-2.28 1.42.16 1.97-.34 1.12.92 1.99 2.63 1.95 1.41 3.17 3.12 3.05 2.2-.02.68.83-.79.74 2.51 1.35 2.06 1.12 2.4 1.92.29.68-.52 1.31-1.56-1.7-2.44-.6-1.18 2.36 2.03 1.34-.33 1.88-1.17.21-1.5 3.06-1.17.27.01-1.08.57-1.91.61-.77-1.09-2.09-.86-1.83-1.16-.46-.83-1.58-1.8-.67-1.21-1.49-2.07-.24-2.19-1.68-2.56-2.45-1.91-2.19-.87-3.8-1.4-.45-2.28-1.29-1.29.53-1.62 1.8-1.17.28.32-1.68-1.52-.49-.72-3.04.97-1.21-.83-1.5.12-1.13 1.21.86 1.35-.19 1.57-1.36.49.64 1.34-.13.61-1.63 2.07.51 1.24-.68.22-1.67 1.7.58.33-.78 2.77-.71.6 1.39z"/><path id="JO" stroke="#FFF" stroke-width=".5" d="M175.92 316.87l.49-1.05 3.12 1.32 5.49-3.54 1.13 4.04-.53.49-5.62 1.65 2.8 3.26-.93.54-.46 1.09-2.14.44-.67 1.16-1.22.98-3.12-.51-.09-.46 1.4-5.17-.07-1.27.42-.96z"/><path id="JP" stroke="#FFF" stroke-width=".5" d="M453.76 311.01l.36 1.15-1.58 2.03-1.15-1.07-1.44.78-.74 1.95-1.83-.95.02-1.58 1.55-2 1.59.39 1.15-1.42 2.07.72zm17.77-10.28l-1.06 2.78.49 1.73-1.46 2.42-3.58 1.6-4.93.21-4 3.84-1.88-1.29-.11-2.52-4.88.75-3.32 1.59-3.28.06 2.84 2.46-1.87 5.61-1.81 1.37-1.36-1.27.69-2.96-1.77-.96-1.14-2.28 2.65-1.03 1.47-2.11 2.82-1.75 2.06-2.33 5.58-1.02 3 .7 2.93-6.17 1.87 1.67 4.11-3.51 1.59-1.38 1.76-4.38-.48-4.1 1.18-2.33 2.98-.68 1.53 5.11-.08 2.94-2.59 3.6.05 3.63zm8.23-25.93l1.97.83 1.98-1.65.62 4.35-4.16 1.05-2.46 3.76-4.41-2.58-1.53 4.12-3.12.06-.39-3.74 1.39-2.94 3-.21.82-5.38.83-3.09 3.29 4.12 2.17 1.3z"/><path id="KE" stroke="#FFF" stroke-width=".5" d="M191.19 414.78l1.66 2.29-1.96 1.12-.69 1.16-1.06.2-.39 1.97-.9 1.12-.55 1.86-1.13.92-4.02-2.79-.2-1.62-10.16-5.67-.48-.31-.02-2.95.8-1.13 1.38-1.84 1.02-2.03-1.23-3.2-.33-1.4-1.33-1.94 1.72-1.67 1.9-1.84 1.46.47v1.57l.96.91h1.95l3.55 2.38.88.02.66-.07.62.32 1.87.22.83-1.16 2.56-1.17 1.13.94h1.92l-2.45 3.17z"/><path id="KG" stroke="#FFF" stroke-width=".5" d="M275.22 282.11l.63-1.66 1.84-.54 4.62 1.31.43-2.24 1.59-.8 4 1.61 1.02-.42 4.65.1 4.16.4 1.4 1.37 1.73.55-.39.86-4.42 2.03-1 1.48-3.6.44-1.06 2.35-2.97-.49-1.93.72-2.68 1.72.39.85-.8.83-5.3.55-3.47-1.17-3.04.28.27-2.1 3.05.61 1.03-1.13 2.13.36 3.59-2.64-3.32-1.96-2 .93-2.07-1.4 2.35-2.43z"/><path id="KH" stroke="#FFF" stroke-width=".5" d="M366.44 382.6l-1.14-1.48-1.41-2.94-.67-3.45 1.8-2.38 3.62-.55 2.63.41 2.31 1.13 1.27-1.99 2.49 1.06.65 1.92-.35 3.42-4.71 2.19 1.23 1.73-2.94.2-2.43 1.14z"/><path id="KP" stroke="#FFF" stroke-width=".5" d="M442.55 281.62l.39.67-1.06-.23-1.22 1.27-.84 1.28.11 2.67-1.45.81-.5.65-1.06 1.08-1.87.6-1.21.98-.09 1.57-.33.4 1.12.58 1.59 1.58-.41.86-1.19.23-1.98.17-1.09 1.6-1.26-.12-.17.32-1.36-.67-.34.66-.82.29-.1-.66-.73-.32-.75-.57.77-1.57.66-.42-.25-.65.71-1.94-.19-.59-1.63-.4-1.32-.97 2.28-2.35 3.09-1.98 1.93-2.65 1.33 1.17 2.42.14-.44-1.97 4.33-1.63 1.12-2.13z"/><path id="KR" stroke="#FFF" stroke-width=".5" d="M436.13 295.53l2.42 4.18.69 2.27.02 3.98-1.05 1.88-2.54.66-2.24 1.41-2.53.29-.31-1.85.52-2.57-1.24-3.6 2.08-.59-1.92-3 .17-.32 1.26.12 1.09-1.6 1.98-.17 1.19-.23z"/><path id="XK" stroke="#FFF" stroke-width=".5" d="M134.47 282.92l-.13.77-.36-.03-.18-1.37-.67-.38-.6-1.02.52-.85.67-.28.39-1.26.5-.22.4.54.53.24.36.61.46.18.55.7.4-.02-.32.93-.33.45.09.28-.63.14z"/><path id="KW" stroke="#FFF" stroke-width=".5" d="M210.77 324.76l.58 1.41-.25.73.9 2.41-1.98.08-.7-1.51-2.5-.31 2.06-3.08z"/><path id="KZ" stroke="#FFF" stroke-width=".5" d="M275.22 282.11l-1.61.7-3.69 2.61-1.23 2.65-1.05.02-.76-1.75-3.57-.12-.57-3.06-1.37-.03.21-3.8-3.35-2.8-4.81.3-3.29.56-2.68-3.5-2.29-1.48-4.35-2.84-.52-.35-7.22 2.35.11 14.13-1.44.18-1.96-2.93-1.9-1.06-3.18.79-1.24 1.25-.16-.92.69-1.57-.53-1.32-3.25-1.3-1.27-3.47-1.54-.98-.1-1.28 2.73.37.11-2.88 2.38-.64 2.45.59.51-3.91-.5-2.51-2.81.2-2.38-1-3.25 1.79-2.61.86-1.43-.66.29-2.1-1.79-2.76-2.08.11-2.38-2.83 1.62-3.22-.82-.87 2.23-4.77 2.89 2.53.35-3.19 5.78-4.85 4.38-.12 6.19 3.1 3.31 1.79 2.98-1.87 4.44-.08 3.59 2.29.82-1.31 3.93.19.71-2.11-4.55-3.09 2.69-2.23-.52-1.25 2.69-1.21-2.02-3.2 1.28-1.62 10.49-1.66 1.37-1.19 7.02-1.79 2.52-2.04 5.04 1.06.88 5.01 2.93-1.16 3.6 1.63-.23 2.58 2.69-.27 7.02-4.49-1.02 1.5 3.58 3.66 6.26 11.58 1.5-2.33 3.86 2.56 4.03-1.14 1.54.8 1.35 2.55 1.96.84 1.2 1.85 3.61-.58 1.49 2.63-2.14 2.83-2.33.4-.13 4.18-1.56 1.86-5.56-1.35-2.02 7.26-1.44.89-5.55 1.58 2.52 6.75-1.92 1 .22 2.16-1.73-.55-1.4-1.37-4.16-.4-4.65-.1-1.02.42-4-1.61-1.59.8-.43 2.24-4.62-1.31-1.84.54z"/><path id="LA" stroke="#FFF" stroke-width=".5" d="M371.27 372.21l.91-1.3.13-2.44-2.27-2.53-.18-2.87-2.13-2.38-2.12-.2-.56 1.02-1.65.08-.84-.51-2.95 1.74-.07-2.62.69-3.11-1.89-.13-.16-1.78-1.22-.92.6-1.1 2.39-1.94.25.7 1.49.08-.42-3.43 1.45-.44 1.64 2.37 1.26 2.72 3.45.03 1.09 2.59-1.79.77-.81 1.07 3.36 1.76 2.33 3.46 1.77 2.57 2.12 2.02.71 2.04-.51 2.88-2.49-1.06-1.27 1.99z"/><path id="LB" stroke="#FFF" stroke-width=".5" d="M176.69 313.93l-.75.05-.26.58h-.94l1-2.73 1.39-2.38.06-.12 1.26.18.46 1.32-1.53 1.27z"/><path id="LK" stroke="#FFF" stroke-width=".5" d="M305.57 391.37l-.42 2.92-1.17.8-2.44.64-1.34-2.23-.49-4.03 1.27-4.58 1.93 1.57 1.31 1.98z"/><path id="LR" stroke="#FFF" stroke-width=".5" d="M54.63 400.22l-.74.02-2.89-1.33-2.54-2.13-2.39-1.53-1.89-1.81.67-.9.15-.81 1.26-1.53 1.31-1.31.6-.07.73-.31 1.17 1.72-.18 1.13.54.6.8.01.57-1.13.79.07-.13.82.28 1.36-.61 1.24.82.77.89.19 1.19 1.17.08 1.11-.27.35z"/><path id="LS" stroke="#FFF" stroke-width=".5" d="M157.5 496.75l.98.96-.86 1.56-.48 1.05-1.56.5-.52 1.04-1 .32-2.1-2.49 1.49-2.03 1.52-1.25 1.31-.64z"/><path id="LT" stroke="#FFF" stroke-width=".5" d="M139.99 231.09l-.23-1.22.3-1.33-1.24-.77-2.93-.86-.6-4.16 3.21-1.55 4.7.33 2.76-.5.39 1.05 1.49.32 2.7 2.42.26 2.2-2.3 1.57-.65 2.72-3.04 1.8-2.71-.04-.67-1.46z"/><path id="LU" stroke="#FFF" stroke-width=".5" d="M93.2 250.29l.56.98-.16 1.89-.81.1-.63-.38.31-2.43z"/><path id="LV" stroke="#FFF" stroke-width=".5" d="M135.29 222.75l.1-3.81 1.38-3.24 2.64-1.78 2.22 3.88 2.25-.1.54-3.99 2.39-.93 1.23.65 2.41 1.94 2.32.01 1.35 1.19.23 2.49.91 2.99-3.02 1.93-1.7.84-2.7-2.42-1.49-.32-.39-1.05-2.76.5-4.7-.33z"/><path id="LY" stroke="#FFF" stroke-width=".5" d="M117.89 346.93l-1.98 1.12-1.58-1.66-4.43-1.31-1.23-1.91-2.22-1.42-1.31.56-.99-1.71-.11-1.32-1.66-2.26 1.12-1.29-.25-1.97.36-1.72-.2-1.44.49-2.59-.15-1.48-.91-2.84 1.37-.75.24-1.38-.3-1.35 1.93-1.26.86-1.05 1.37-.95.16-2.55 3.29 1.15 1.18-.29 2.34.56 3.72 1.47 1.31 2.92 2.52.64 3.95 1.36 2.99 1.61 1.37-.84 1.34-1.49-.65-2.51.88-1.6 2.02-1.55 1.93-.45 3.79.68.96 1.48 1.04.01.89.56 2.79.39.68 1.08-1.01 1.57.43 1.39-.72 2 .84 2.58v28.37l-3.22.01-.04 1.24-11.18-5.7-11.19-5.77z"/><path id="MA" stroke="#FFF" stroke-width=".5" d="M51.96 332.14l-.03-3.75 4.53-2.36 2.8-.49 2.29-.86 1.08-1.62 3.28-1.29.12-2.41 1.62-.29 1.27-1.21 3.67-.56.51-1.28-.74-.71-.97-3.53-.16-2.05-1.06-2.18-1.22-.04-2.9-.75-2.67.24-1.69-1.46-2.06-.02-.89 2.11-1.87 3.51-2.08 1.39-2.81 1.53-1.8 2.24-.38 1.74-1.07 2.82.7 4.03-2.34 2.68-1.4.85-2.21 2.17-2.61.35-1.3 1.12 3.62.01 8.75.03-8.75-.03-3.62-.01z"/><path id="MD" stroke="#FFF" stroke-width=".5" d="M150.89 258.45l.67-.62 1.86-.42 2.07 1.31 1.15.16 1.27 1.12-.2 1.41 1.02.67.4 1.72.98 1.04-.19.6.52.42-.74.29-1.66-.11-.27-.57-.59.33.2.72-.77 1.29-.49 1.37-.7.44-.51-1.83.3-1.72-.09-1.79-1.62-2.44-.89-1.75-.87-1.24z"/><path id="ME" stroke="#FFF" stroke-width=".5" d="M131.77 281.23l-.17-.72-1.22 1.87.19 1.19-.59-.29-.78-1.23-1.22-.75.31-.64.41-2.1.91-.89.53-.36.74.66.41.54.92.41 1.07.79-.23.33-.52.85z"/><path id="MG" stroke="#FFF" stroke-width=".5" d="M215.17 447.4l.74 1.21.69 1.89.46 3.46.72 1.35-.28 1.38-.49.86-.96-1.7-.52.86.53 2.14-.25 1.24-.77.67-.18 2.48-1.1 3.42-1.38 4.09-1.74 5.67-1.07 4.21-1.27 3.55-2.28.73-2.45 1.31-1.61-.79-2.23-1.1-.77-1.62-.19-2.71-.98-2.42-.26-2.17.5-2.16 1.29-.52.01-.99 1.34-2.26.25-1.88-.65-1.4-.53-1.85-.22-2.7.98-1.63.37-1.85 1.4-.1 1.57-.6 1.03-.52 1.24-.04 1.59-1.65 2.31-1.78.84-1.44-.38-1.23 1.19.35 1.55-1.99.05-1.72.93-1.28z"/><path id="MK" stroke="#FFF" stroke-width=".5" d="M133.98 283.66l.36.03.13-.77 1.65-.59.63-.14.96-.22 1.29-.06 1.41 1.21.2 2.47-.54.12-.46.65-1.52-.07-1.07.81-1.83.32-1.16-.9-.4-1.59z"/><path id="ML" stroke="#FFF" stroke-width=".5" d="M42.13 371.22l.94-.52.47-1.7.89-.07 1.96.8 1.58-.57 1.08.19.43-.64 11.25-.04.62-2.03-.49-.36-1.35-12.68-1.35-13.06 4.29-.05 9.46 6.65 9.46 6.55.66 1.39 1.75.85 1.3.48.03 1.88 3.11-.29.01 6.75-1.54 1.94-.24 1.79-2.49.45-3.82.25-1.04 1.03-1.8.11-1.79.01-.7-.55-1.55.41-2.62 1.2-.53.9-2.18 1.28-.38.74-1.17.58-1.36-.38-.77.7-.41 1.96-2.23 2.36.07.96-.77 1.21.19 1.64-1.16.42-.65.36-.44-1.21-.81.32-.48-.06-.52.83-2.16-.03-.78-.42-.36.26-.86-.82.15-.84-.35-.34-.6.28.11-.92.58-.73-1.15-1.19-.34-.79-.62-.62-.56-.08-.67.4-.91.38-.77.62-1.2-.23-.78-.72-.46-.1-.73.38-.45.01-.16-1.05.13-.89-.24-1.1-1.05-.81-.55-1.64z"/><path id="MM" stroke="#FFF" stroke-width=".5" d="M355.36 354.95l-1.64 1.28-1.98.14-1.28 3.19-1.18.53 1.36 2.57 1.78 2.13 1.14 1.92-1.02 2.52-.97.53.67 1.45 1.87 2.28.32 1.6-.05 1.33 1.1 2.6-1.54 2.65-1.36 2.91-.27-2.1.86-2.18-.94-1.68.23-3.11-1.14-1.48-.91-3.44-.51-3.66-1.21-2.4-1.85 1.46-3.19 2.06-1.57-.26-1.74-.67.97-3.61-.58-2.74-2.2-3.39.34-1.07-1.64-.38-1.99-2.42-.18-2.41.98.46.05-2.15 1.39-.72-.3-1.28.63-1.03.11-3.15 2.19.7 1.25-2.52.15-1.5 1.54-2.6-.08-1.78 3.63-2.16 2 .57-.23-1.93.99-.58-.22-1.2 1.64-.24.94 1.86 1.22.75.09 2.4-.12 2.57-2.65 2.58-.34 3.63 2.96-.5.67 2.8 1.78.59-.82 2.5 2.08 1.13 1.22.55 2.05-.87.09 1.24-2.39 1.94-.6 1.1z"/><path id="MN" stroke="#FFF" stroke-width=".5" d="M322.29 253.88l2.96-.74 5.35-3.74 4.27-2.07 2.43 1.35 2.93.06 1.87 2.05 2.8.15 4.06 1.09 2.72-3.03-1.14-2.6 2.91-4.66 3.14 1.87 2.54.53 3.3 1.15.53 3.32 3.99 1.84 2.65-.81 3.54-.57 2.81.58 2.75 2.09 1.7 2.2 2.6-.04 3.53.69 2.58-1.06 3.69-.71 4.11-3.06 1.68.47 1.47 1.46 3.34-.36-1.36 3.25-1.98 4.22.72 1.71 1.59-.53 2.76.65 2.16-1.54 2.25 1.33 2.54 2.89-.31 1.45-2.21-.46-4.07.54-1.98 1.16-2.05 2.66-4.28 1.55-2.79 2.1-2.88-.8-1.58-.36-1.47 2.54.89 1.5.46 1.28-1.97 1.3-2.01 2.05-3.27 1.33-4.21.15-4.53 1.31-3.26 2.01-1.24-1.16h-3.39l-4.15-2.29-2.77-.57-3.73.53-5.79-.85-3.09.09-1.64-2.27-1.28-3.57-1.73-.43-3.39-2.45-3.78-.55-3.33-.68-1.01-1.73 1.08-4.73-1.93-3.31-4-1.57-2.36-2.23z"/><path id="MR" stroke="#FFF" stroke-width=".5" d="M42.13 371.22l-1.85-1.98-1.7-2.13-1.86-.77-1.34-.85-1.57.03-1.36.63-1.4-.25-.96.93-.24-1.56.78-1.44.35-2.75-.31-2.91-.34-1.47.28-1.47-.72-1.42-1.48-1.28.61-1 10.98.02-.53-4.35.69-1.55 2.62-.27-.09-7.86 9.21.17v-4.73l10.55 7.53-4.29.05 1.35 13.06 1.35 12.68.49.36-.62 2.03-11.25.04-.43.64-1.08-.19-1.58.57-1.96-.8-.89.07-.47 1.7z"/><path id="MW" stroke="#FFF" stroke-width=".5" d="M173.15 444.69l-.78 2.16.78 3.72.98-.04 1.01.92 1.17 2.08.24 3.72-1.21.61-.86 2.01-1.83-1.79-.2-2.04.59-1.35-.17-1.15-1.1-.73-.78.26-1.61-1.38-1.47-.74.85-2.66.88-.99-.54-2.36.56-2.3.48-.77-.71-2.4-1.32-1.26 2.74.52.57.78.95 1.32z"/><path id="MY" stroke="#FFF" stroke-width=".5" d="M359.65 395.07l.22 1.44 1.85-.33.92-1.15.64.26 1.66 1.69 1.18 1.87.16 1.88-.3 1.27.27.96.21 1.65.99.77 1.1 2.46-.05.94-1.99.19-2.65-2.06-3.32-2.21-.33-1.42-1.62-1.87-.39-2.31-1.01-1.52.31-2.04-.62-1.19.49-.5 2.28 1.22zm49.19 4.83l-2.06.95-2.43-.47h-3.22l-.97 3.17-1.08.97-1.44 3.88-2.29.59-2.65-.78-1.34.24-1.63 1.41-1.79-.2-1.81.57-1.92-1.57-.47-1.86 2.05.96 2.17-.52.56-2.36 1.2-.53 3.36-.6 2.01-2.21 1.38-1.77 1.28 1.45.59-.95 1.34.09.16-1.78.13-1.38 2.16-1.95 1.41-2.19 1.13-.01 1.44 1.42.13 1.22 1.85.78 2.34.84-.2 1.1-1.88.14.49 1.35z"/><path id="MZ" stroke="#FFF" stroke-width=".5" d="M173.15 444.69l2.11-.23 3.37.8.74-.36 1.95-.07 1-.85 1.68.04 3.06-1.1 2.23-1.64.46 1.27-.12 2.83.35 2.5.11 4.48.49 1.4-.83 2.07-1.09 2.01-1.79 1.8-2.56 1.11-3.16 1.41-3.17 3.15-1.08.54-1.96 2.09-1.15.69-.24 2.12 1.33 2.25.55 1.76.04.9.49-.15-.08 2.96-.45 1.41.66.52-.42 1.27-1.17 1.09-2.31 1.04-3.37 1.66-1.23 1.15.24 1.3.71.21-.24 1.64-2.12-.02-.24-1.38-.42-1.39-.24-1.11.5-3.43-.73-2.17-1.34-4.26 2.95-3.41.74-2.15.43-.27.31-1.74-.45-.88.12-2.2.55-2.04-.01-3.69-1.45-.94-1.34-.21-.6-.72-1.3-.61-2.34.06-.18-1.08-.27-2.05 8.51-2.38 1.61 1.38.78-.26 1.1.73.17 1.15-.59 1.35.2 2.04 1.83 1.79.86-2.01 1.21-.61-.24-3.72-1.17-2.08-1.01-.92-.98.04-.78-3.72z"/><path id="NA" stroke="#FFF" stroke-width=".5" d="M122.08 495.54l-2.08-2.39-1.1-2.3-.62-3.03-.69-2.25-.94-4.72-.06-3.63-.36-1.64-1.09-1.24-1.45-2.47-1.47-3.57-.61-1.85-2.29-2.87-.17-2.25 1.35-.55 1.68-.5 1.82.09 1.67 1.32.42-.21 11.37-.12 1.94 1.4 6.79.41 5.15-1.19 2.3-.67 1.82.17 1.1.66.03.24-1.58.66-.86.01-1.78 1.15-1.08-1.21-4.32 1.03-2.09.09-.08 10.57-2.76.11v8.86l-.01 11.52-2.5 1.63-1.5.23-1.77-.6-1.26-.23-.47-1.36-1.11-.87z"/><path id="NC" stroke="#FFF" stroke-width=".5" d="M541.08 472.48l2.3 1.86 1.45 1.38-1.06.73-1.55-.82-2-1.35-1.81-1.59-1.85-2.1-.39-1.01 1.2.05 1.58 1.01 1.23 1.01z"/><path id="NE" stroke="#FFF" stroke-width=".5" d="M82.29 378.88l.07-1.95-3.24-.65-.08-1.38-1.58-1.87-.38-1.31.22-1.4 1.8-.11 1.04-1.03 3.82-.25 2.49-.45.24-1.79 1.54-1.94-.01-6.75 3.95-1.32 8.12-5.85 9.61-5.75 4.43 1.31 1.58 1.66 1.98-1.12.69 4.67 1.05.78.05.95 1.16 1.02-.61 1.28-1.08 5.98-.14 3.79-3.58 2.74-1.21 3.8 1.17 1.06-.01 1.85 1.8.07-.28 1.34-.79.17-.09.9-.53.07-1.89-3.13-.66-.12-2.19 1.6-2.17-.83-1.51-.17-.81.4-1.65-.08-1.65 1.22-1.43.07-3.39-1.48-1.33.7-1.43-.05-1.05-1.08-2.82-1.07-3.01.34-.73.62-.39 1.65-.81 1.15-.19 2.54-2.14-1.64-1.01.01z"/><path id="NG" stroke="#FFF" stroke-width=".5" d="M100.09 399.08l-2.91 1-1.07-.14-1.08.62-2.24-.06-1.5-1.75-.92-2.02-1.99-1.84-2.11.03H83.8l.16-4.53-.07-1.79.53-1.77.86-.87 1.36-1.75-.29-.76.55-1.14-.63-1.68.11-.95.19-2.54.81-1.15.39-1.65.73-.62 3.01-.34 2.82 1.07 1.05 1.08 1.43.05 1.33-.7 3.39 1.48 1.43-.07 1.65-1.22 1.65.08.81-.4 1.51.17 2.17.83 2.19-1.6.66.12 1.89 3.13.53-.07 1.11 1.14-.31.51-.15.95-2.36 2.2-.74 1.81-.4 1.47-.59.63-.57 1.97-1.5 1.16-.43 1.42-.63 1.14-.26 1.16-1.93.95-1.57-1.15-1.07.04-1.67 1.64-.81.03-1.33 2.7z"/><path id="NL" stroke="#FFF" stroke-width=".5" d="M93.28 234.98l2.33.13.53 1.58-.7 4.23-.71 1.71h-1.69l.48 4.69-1.55-1.04-1.77-1.95-2.6.93-2.05-.35 1.44-1.24 2.46-6.74z"/><path id="NO" stroke="#FFF" stroke-width=".5" d="M155.23 124.61l8.77 6.24-3.61 2.23 3.07 5.11-4.77 3.19-2.26.72 1.19-5.59-3.6-3.25-4.35 2.78-1.38 5.85-2.67 3.44-3.01-1.87-3.66.38-3.12-4.15-1.68 2.09-1.74.32-.41 5.08-5.28-1.22-.74 4.22-2.69-.03-1.85 5.24-2.8 7.87-4.35 9.5 1.02 2.23-.98 2.55-2.78-.11-1.82 5.91.17 8.04 1.79 2.98-.93 6.73-2.33 3.81-1.24 3.15-1.88-3.35-5.54 6.27-3.74 1.24-3.88-2.71-1-5.86-.89-13.26 2.58-3.88 7.4-5.18 5.54-6.59 5.13-9.3 6.74-13.76 4.7-5.67 7.71-9.89 6.15-3.59 4.61.44 4.27-6.99 5.11.38z"/><path id="NP" stroke="#FFF" stroke-width=".5" d="M323.33 331.45l-.22 1.35.37 1.99-.32 1.24-2.33.05-3.38-.73-2.16-.29-1.62-1.59-3.84-.41-3.66-1.77-2.64-1.55-2.72-1.2 1.09-2.99 1.78-1.46 1.16-.78 2.25 1 2.83 2.09 1.57.46.94 1.53 2.18.63 2.28 1.39 3.17.73z"/><path id="NZ" stroke="#FFF" stroke-width=".5" d="M561.38 537.63l.64 1.53 1.99-1.5.81 1.57v1.57l-1.04 1.74-1.83 2.8-1.43 1.54 1.03 1.86-2.16.05-2.4 1.46-.75 2.57-1.59 4.03-2.2 1.8-1.4 1.16-2.58-.09-1.82-1.34-3.05-.28-.47-1.48 1.51-2.96 3.53-3.87 1.81-.73 2.01-1.47 2.4-2.01 1.68-1.98 1.25-2.81 1.06-.95.42-2.07 1.97-1.7.61 1.56zm4.46-17.02l2.03 3.67.06-2.38 1.27.95.42 2.65 2.26 1.15 1.89.28 1.6-1.35 1.42.41-.68 3.15-.85 2.09-2.14-.07-.75 1.1.26 1.56-.41.68-1.06 1.97-1.39 2.53-2.17 1.49-.48-.98-1.17-.54 1.62-3.04-.92-2.01-3.02-1.45.08-1.31 2.03-1.25.47-2.74-.13-2.28-1.14-2.34.08-.61-1.34-1.43-2.21-3.04-1.17-2.41 1.04-.27 1.53 1.89 2.18.89.79 3.04z"/><path id="OM" stroke="#FFF" stroke-width=".5" d="M241.29 352.18l-1.05 2.04-1.27-.16-.58.71-.45 1.5.34 1.98-.26.36-1.29-.01-1.75 1.1-.27 1.43-.64.62-1.74-.02-1.1.74.01 1.18-1.36.81-1.55-.27-1.88.98-1.3.16-.92-2.04-2.19-4.84 8.41-2.96 1.87-5.97-1.29-2.14.07-1.22.82-1.26.01-1.25 1.27-.6-.5-.42.23-2 1.43-.01 1.26 2.09 1.57 1.11 2.06.4 1.66.55 1.27 1.74.76 1 1 .38-.01.67-1.02 1.79-.45.84-1.17.99zm-6.92-14.54l-.37.56-.53-1.06.82-1.06.35.27-.27 1.29z"/><path id="PG" stroke="#FFF" stroke-width=".5" d="M513.32 431.42l-.79.28-1.21-1.08-1.23-1.78-.6-2.13.39-.27.3.83.85.63 1.36 1.77 1.32.95-.39.8zm-10.93-3.75l-1.47.23-.44.79-1.53.68-1.44.66h-1.49l-2.3-.81-1.6-.78.23-.87 2.51.41 1.53-.22.42-1.34.4-.07.27 1.49 1.6-.21.79-.96 1.57-1-.31-1.65 1.68-.05.57.46-.06 1.55-.93 1.69zm-13.43 5.35l2.5 1.84 1.82 2.99 1.61-.09-.11 1.25 2.17.48-.84.53 2.98 1.19-.31.82-1.86.2-.69-.73-2.41-.32-2.83-.43-2.18-1.8-1.59-1.55-1.46-2.46-3.66-1.23-2.38.8-1.71.93.36 2.08-2.2.97-1.57-.47-2.9-.12-.05-9.16-.05-9.1 4.87 1.92 5.18 1.6 1.93 1.43 1.56 1.41.43 1.65 4.67 1.73.68 1.49-2.58.3.62 1.85zm16.67-8.09l-.88.74-.53-1.65-.65-1.08-1.27-.91-1.6-1.19-2.02-.82.78-.67 1.51.78.95.61 1.18.67 1.12 1.17 1.07.89.34 1.46z"/><path id="PH" stroke="#FFF" stroke-width=".5" d="M430.59 388.86l.29 1.87.17 1.58-.96 2.57-1.02-2.86-1.31 1.42.9 2.06-.8 1.31-3.3-1.63-.79-2.03.86-1.33-1.78-1.33-.88 1.17-1.32-.11-2.08 1.57-.46-.82 1.1-2.37 1.77-.79 1.53-1.06.99 1.27 2.13-.77.46-1.26 1.98-.08-.17-2.18 2.27 1.34.24 1.42.18 1.04zm-6.71-5.26l-1.01.93-.88 1.79-.88.84-1.73-1.95.58-.76.7-.79.31-1.76 1.55-.17-.45 1.91 2.08-2.74-.27 2.7zm-15.36 2.72l-3.73 2.67 1.38-1.97 2.03-1.74 1.68-1.96 1.47-2.82.5 2.31-1.85 1.56-1.48 1.95zm9.48-7.3l1.68.88h1.78l-.05 1.19-1.3 1.2-1.78.85-.1-1.32.2-1.45-.43-1.35zm10.14-.77l.79 3.18-2.16-.75.06.95.69 1.75-1.33.63-.12-1.99-.84-.15-.44-1.72 1.65.23-.04-1.08-1.71-2.18 2.69.06.76 1.07zM417 375.66l-.74 2.47-1.2-1.42-1.43-2.18 2.4.1.97 1.03zm-.58-15.74l1.73.84.86-.76.25.75-.46 1.22.96 2.09-.74 2.42-1.65.96-.44 2.33.63 2.29 1.49.32 1.24-.34 3.5 1.59-.27 1.56.92.69-.29 1.32-2.18-1.4-1.04-1.5-.72 1.05-1.79-1.72-2.55.42-1.4-.63.14-1.19.88-.73-.84-.67-.36 1.04-1.38-1.65-.42-1.26-.1-2.77 1.13.96.29-4.55.91-2.66 1.7-.02z"/><path id="PL" stroke="#FFF" stroke-width=".5" d="M118.36 245.97l-1.15-2.86.22-1.56-.7-2.45-1.01-1.65.78-1.25-.66-2.39 1.92-1.39 4.37-2.22 3.54-1.64 2.79.82.21 1.18 2.71.06 3.45.55 5.16-.08 1.44.52.67 1.46.12 2.09.78 1.78-.02 1.85-1.68.94.87 2.12.05 2.01 1.41 3.89-.3 1.24-1.39.51-2.55 3.61.72 1.92-.61-.25-2.66-1.64-2.02.6-1.32-.44-1.66.92-1.41-1.52-1.16.58-.16-.26-1.29-2.13-2.08-.26-.27-1.37-1.92-.49-.42 1.13-1.52-.9.17-1.21-2.09-.39z"/><path id="PK" stroke="#FFF" stroke-width=".5" d="M286.99 300.76l2.07 1.63.83 2.66 4.61 1.39-2.71 2.86-3.12.51-4.26-.83-1.37 1.46.99 2.95.97 2.25 2.27 1.63-2.39 1.91.04 2.33-2.72 3.24-1.76 3.26-2.93 3.32-3.26-.24-3.09 3.3 1.84 1.4.32 2.39 1.57 1.56.56 2.64-6.17-.01-1.87 2.04-2.05-.77-.84-2.2-2.17-2.34-5.16.58-4.56.05-3.95.44 1.06-3.6 4.04-1.61-.23-1.44-1.34-.51-.08-2.77-2.68-1.4-1.13-1.93-1.38-1.68 4.69 1.64 2.81-.48 1.67.4.57-.7 1.95.28 3.65-1.33.1-2.75 1.56-1.84h2.09l.3-.91 2.15-.43 1.03.3 1.1-.92-.15-1.98 1.19-2 1.78-.85-1.1-2.22 2.67.11.77-1.22-.12-1.3 1.4-1.43-.33-1.7-.66-1.46 1.64-1.51 3.01-.73 3.22-.4 1.42-.65z"/><path id="PS" stroke="#FFF" stroke-width=".5" d="M175.92 316.87v2.01l-.42.96-1.32.45.13-.86.71-.46-.7-.36.58-2.2z"/><path id="PT" d="M50.92 283.56l1.02-.95 1.14-.55.71 1.84 1.65-.01.48-.47 1.64.13.78 1.88-1.3 1-.03 2.88-.46.53-.11 1.72-1.21.3 1.12 2.17-.77 2.35.96 1.06-.38.96-1.04 1.32.23 1.16-1.12.91-1.48-.49-1.45.38.43-2.74-.26-2.18-1.26-.33-.67-1.35.23-2.36 1.11-1.31.2-1.47.59-2.21-.07-1.57-.56-1.34zM39.55 317.736l.383.175.352-.084.436.225.227.052-.202.161-.203.204-.507-.048-.429-.196-.154-.149-.042-.134.139-.206zm-21.994-13.945l-.012.064-.159-.025-.201.019-.108-.186.098-.077.226-.019.108.083.048.141zm-1.744-3.099l.178.024.895-.052.238.038-.025.26-.169.104-.527.07-.829-.168-.278-.224-.04-.164.005-.077.175-.061.377.25zm-7.011-2.174l.231.143-.351.031-.116.07-.284-.101-.343.015-.215-.192-.049-.2.108-.124.303-.001.716.359zm-1.387-.258l-.288.009-.275-.272.405-.143.119.087.088.099.052.127-.101.093zm2.422-.11l-.133.043-.748-.275-.267-.125-.346-.317.977.385.517.289zm1.973-.314l-.056.034-.583-.097-.166-.131-.067-.244.098-.083.256-.049.372.046.239.175v.223l-.093.126zm-11.4-2.747l-.124.174-.214-.062-.071-.065.062-.372.171-.087.172.15.004.262zm64.448-8.888l.059.03.163-.008.29-.142.197-.119.069.049.571-.067.135.054.09.061.281.082.306.009.379-.115.166-.116.032-.128.008-.097.049-.062.086-.035.135.063.193.051.463.021.091-.071.157.021.207.09.239-.029.121.11.05.146.014.317-.018.32.047.118.162.031.261-.004.235.086.182.151.06.154.026.106-.089.06-.126.228-.32.297-.457.267-.349.332-.24.396-.301.168-.092.09-.036.107.199.484.061.373.049.456-.032.128-.017.5-.046.146.012.119.073.127.033.122-.137.155-.251.18-.186.158-.05.148.014.092.313.313.057.128-.042.309-.18.505-.172.307-.03.03-.197.087-.944.003-.229.069.032.062.222.394.231.209.077.048.083.459.375.732.363.101.126.183-.023.256-.112.281-.223.288-.265.202-.173.201-.014.233-.055.295-.083.233-.021.157.664.985.37-.048.048.023-.066.234-.117.274-.14.052-.317.084-.3.354-.243.425-.183.206-.167.504.021.218.081.336.171.874-.246.039-.956.569-.296.001-.553-.25-.976-.081-.318-.075-.397.164-.307-.004-.244.209-.175-.057.201-.469.315-.93-.013-.569.075-.496-.086-.492-.158-.308.215-.799-.024-.413-.197-.524.597.08-.185-.208-.182-.127-.176.029-.149-.008-.508.203-.255.061-.074-.036.028-.324-.132-.421.204-.111.237-.032.202-.18.125-.201-.066-.359.175-.341.411-.289-.213.044-.244.18-.384.652-.125.33-.327.107-.293.053-.15-.035-.18-.083-.016-.243.014-.194.122-.386.048-.546.173-.49-.013-.131-.049-.195.154-.191.191-.126.29-.422.405-1.009.467-1.077-.038-.132-.099-.102.04-.292.281-1.273.114-.167.132-.375.03-.606.052-.418-.012-.21-.042-.253-.179-.484-.188-1.026-.015-.344.155-.174-.255-.025-.116-.223.026-.253.284-.409.265-.254.262-.166.145-.063.605-.173.159-.084.149.014.025.083.086.16.096.111.026.082-.234.343-.032.117.122.221.018.07z"/><path id="QA" stroke="#FFF" stroke-width=".5" d="M218.72 341.16l-.19-2.24.76-1.62.76-.34.85.97.05 1.81-.61 1.81-.78.22z"/><path id="RO" stroke="#FFF" stroke-width=".5" d="M139.93 259.86l1.21-.89 1.74.46 1.79.02 1.3 1.01.96-.64 2.07-.4.71-.98 1.18.01.85.4.87 1.24.89 1.75 1.62 2.44.09 1.79-.3 1.72.51 1.83 1.25.73 1.31-.64 1.28.68.06 1.03-1.36.84-.85-.36-.78 4.71-1.65-.41-2.04-1.41-3.3.9-1.39.99-4.12-.2-2.16-.61-1.08.29-.81-1.6-.51-.68.65-.66-.7-.49-.88.88-1.63-1.14-.22-1.63-1.71-.94-.31-1.27-1.52-1.58 2.25-.76 1.69-2.76 1.33-2.8z"/><path id="RS" stroke="#FFF" stroke-width=".5" d="M134.78 269.9l1.71.94.22 1.63 1.63 1.14.88-.88.7.49-.65.66.51.68-.69.88.25 1.42 1.36 1.66-1.07 1.19-.47 1.21.31.45-.47.54-1.29.06-.96.22-.09-.28.33-.45.32-.93-.4.02-.55-.7-.46-.18-.36-.61-.53-.24-.4-.54-.5.22-.39 1.26-.67.28.23-.33-1.07-.79-.92-.41-.41-.54-.74-.66.66-.17.41-1.82-1.35-1.5.7-1.72-1.02.01 1.08-1.49-.89-1.14-.68-1.55 2.15-1.05 1.75.17 1.52 1.58z"/><path id="RU" stroke="#FFF" stroke-width=".5" d="M609.27 164.75l-2.78 2.97-4.6.7-.07 6.46-1.12 1.35-2.63-.19-2.14-2.26-3.73-1.92-.63-2.89-2.85-1.1-3.19.87-1.52-2.37.61-2.55-3.36 1.64 1.26 3.19-1.59 2.83-.02.04-3.6 2.89-3.63-.48 2.53 3.44 1.67 5.2 1.29 1.67.33 2.53-.72 1.6-5.23-1.32-7.84 4.51-2.49.69-4.29 4.1-4.07 3.5-1.03 2.55-4.01-3.9-7.31 4.42-1.28-2.08-2.7 2.39-3.75-.76-.9 3.63-3.36 5.22.1 2.14 3.19 1.17-.38 7.46-2.6.19-1.2 4.15 1.17 2.1-4.9 2.47-.97 5.4-4.18 1.14-.84 4.66-4.04 4.18-1.04-3.08-1.2-6.69-1.56-10.65 1.35-6.95 2.37-3.07.15-2.44 4.36-1.18 5.01-6.78 4.83-5.73 5.04-4.57 2.25-8.37-3.41.51-1.68 4.92-7.11 6.36-2.3-7.14-7.24 2-7.02 9.56 2.32 3.38-6.26 1.42-4.33.56.2-3.95-4.36-.84-3.47 2.7-8.57-.94-9.22 1.62-9.08 10.33-10.75 11.78 4.42.61 1.38 3 2.72 1.05 1.79-2.38 3.08.31 4.05 5.19.09 3.92-2.19 4.51-.24 5.27-1.26 6.85-4.23 6.01-.94 2.82-3.81 4.66-3.78 4.53-1.81 2.28-3.74 2.25-1.77.05-1.76-1.86-3.76 2.79-.44 1.26-.39-.66-.02-1.93 1.43-.1.4-4.55-.74-3.36 2.41-1.4 3.4.7 1.89-3.89.96-4.46 1.09-1.51 1.47-3.76-4.63 1.24-2.43 1.65h-4.26l-1.13-3.95-3.32-3.03-4.88-1.38-1.04-4.28-.98-2.73-1.05-1.94-1.73-4.61-2.46-1.71-4.2-1.39-3.72.13-3.48.84-2.32 2.31 1.54 1.1.04 2.52-1.56 1.45-2.53 4.72.03 1.93-3.95 2.74-3.37-1.63-3.35.36-1.47-1.46-1.68-.47-4.11 3.06-3.69.71-2.58 1.06-3.53-.7-2.6.04-1.7-2.2-2.75-2.09-2.81-.58-3.55.57-2.65.81-3.98-1.84-.53-3.32-3.3-1.15-2.54-.53-3.14-1.87-2.9 4.66 1.14 2.6-2.73 3.03-4.05-1.09-2.8-.16-1.87-2.04-2.92-.06-2.44-1.35-4.26 2.07-5.35 3.74-2.96.74-1.1.35-1.49-2.63-3.61.58-1.19-1.84-1.96-.85-1.35-2.55-1.55-.8-4.03 1.14-3.86-2.57-1.49 2.33-6.27-11.58-3.58-3.66 1.03-1.5-7.03 4.49-2.69.27.23-2.58-3.6-1.63-2.93 1.17-.88-5.01-5.04-1.06-2.52 2.03-7.02 1.79-1.37 1.19-10.49 1.66-1.29 1.62 2.02 3.21-2.69 1.2.53 1.25-2.69 2.22 4.54 3.1-.7 2.11-3.94-.19-.81 1.31-3.59-2.29-4.45.09-2.98 1.87-3.32-1.79-6.18-3.1-4.38.12-5.79 4.85-.35 3.19-2.88-2.53-2.24 4.77.82.87-1.62 3.21 2.38 2.84 2.08-.12 1.79 2.76-.28 2.1 1.42.66-1.28 2.39-2.72.66-2.79 4.09 2.55 3.7-.28 2.59 3.06 4.46-1.67 1.51-.48.95-1.24-.25-1.93-2.27-.79-.13-1.76-.87-.86-1.55-2.62-.79-1.7.6-.49-.71-3.82-1.83-4.13-.62-2.37-.66-.34.45-3.57-3.27-3.2-1.48-2.42-2.32 2.04-.64 2.33-3.35-1.57-1.6 4.13-1.67-.07-.9-2.52.66.09-1.83 1.45-1.16 2.71-.31.44-1.4-.62-2.33 1.14-2.23-.03-1.26-4.13-1.41-1.64.05-1.73-2.04-2.15.69-3.56-1.54.06-.87-1-1.93-2.24-.22-.23-1.39.7-.91-1.79-2.58-2.91.44-.85-.23-.71 1.04-1.05-.18-.69-2.94-.66-1.54.54-.44 2.26.16 1.09-1.02-.81-1.25-1.89-.83.17-.86-1.14-.87-1.76-3.15.6-1.31-.27-2.31-2.74-1.18-1.47.59-.4-1.24-2.95-1.26-.9-2.99-.24-2.49-1.35-1.19 1.2-1.66-.83-4.96 2-3.13-.42-.96 3.19-3.07-2.94-2.68 6-7.41 2.6-3.45 1.05-3.1-4.15-4.26 1.15-4.15-2.52-4.85 1.89-5.76-3.26-7.96 2.59-5.48-4.29-4.99.41-5.4 2.26-.72 4.77-3.19 2.89-2.81 4.61 4.86 7.68 1.88 10.59 8.65 2.15 3.51.19 4.8-3.11 3.69-4.58 1.85-12.52-5.31-2.06.9 4.57 5.1.18 3.15.18 6.75 3.61 1.97 2.19 1.66.36-3.11-1.69-2.8 1.78-2.51 6.78 4.1 2.36-1.59-1.89-4.88 6.53-6.74 2.59.4 2.62 2.43 1.63-4.81-2.34-4.28 1.37-4.41-2.06-4.69 7.84 2.44 1.6 4.18-3.55.91.02 4.04 2.21 2.44 4.33-1.54.69-4.61 5.86-3.52 9.79-6.54 2.11.38-2.76 4.64 3.48.78 2.01-2.58 5.25-.21 4.16-3.19 3.2 4.62 3.19-5.09-2.94-4.58 1.46-2.66 8.28 2.44 3.88 2.49 10.16 8.8 1.88-3.97-2.85-4.11-.08-1.68-3.38-.78.92-3.83-1.5-6.49-.08-2.74 5.17-7.99 1.84-8.42 2.08-1.88 7.42 2.51.58 5.18-2.66 7.28 1.74 2.78.9 5.94-.64 11.07 3.09 4.73-1.2 5.01-5.49 10.2 3.21 1.02 1.12-2.51 3.08-1.82.74-3.55 2.43-3.49-1.63-4.26 1.31-5.08-3.07-.64-.67-4.42 2.24-8.28-3.64-7.03 5.02-6.04-.65-6.62 1.4-.22 1.47 5.19-1.11 8.67 3 1.59-1.28-6.37 4.69-3.58 5.82-.49 5.18 5.18-2.49-7.62-.28-10.28 4.88-2.02 6.74.44 6.08-1.32-2.28-5.38 3.25-7.02 3.22-.3 5.45-5.51 7.4-1.51.94-3.15 7.36-1.08 2.29 2.61 6.29-6.24 5.15.2.77-5.24 2.68-5.33 6.62-5.31 4.81 4.21-3.82 3.13 6.35 1.92.76 6.03 2.56-2.94 8.2.16 6.32 5.84 2.25 4.35-.7 5.85-3.1 3.24-7.37 5.92-2.11 3.08 3.48 1.43 4.15 2.55 2.52-1.91 1.43 6.39 1.23-2.56 4.48-1.57 9 1.65.68 4.58 11.72 1.43.16-7.47 5.95 1.74 4.48-.05 4.53 5.14 1.29 6.04-1.66 3.84 3.52 6.98 4.41 3.49 2.71-9.18 4.5 4 4.78-2.38 5.43 2.72 2.07-2.47 4.59 1.24-2.02-8.4 3.7-4.07 25.32 6.06 2.39 5.35 7.34 6.65 11.32-1.62 5.58 1.41 2.33 3.5-.34 6.02 3.45 2.29 3.75-1.64 4.97-.21 5.29 1.57 5.31-.89 4.88 6.99 3.47-2.48-2.27-5.07 1.25-3.62 8.95 2.29 5.83-.49 8.06 3.84 3.92 3.44 6.87 5.86 7.35 7.34-.24 4.44 1.89 1.74-.65-5.15 7.61 1.07 5.55 6.53zm-127.43 90.5l-2.82-7.68-1.16-4.51.07-4.5-.97-4.5-.73-3.15-1.25.67 1.11 2.21-2.59 2.17-.25 6.3 1.64 4.41-.12 5.85-.65 3.24.32 4.54-.31 4.01.52 3.4 1.84-3.13 2.13 2.44.08-2.84-2.73-4.23 1.72-6.11 4.15 1.41zm-343.02-27.48l-2.94-.86-3.87 1.58-.64 2.13 3.45.55 5.16-.07-.22-1.23.3-1.33-1.24-.77zm442.13-100.12l3.66-.52 2.89-2.06.24-1.19-4.06-2.51-2.38-.02-.36.37-3.57 3.64.5 2.73 3.08-.44zm-109.88-27.09l-2.66 3.92.49.52 5.75 1.08 4.25-.07-.34-2.57-3.98-3.81-3.51.93zm24.57-9.53l3.24-4.25-7.04-2.88-5.23-1.68-.67 3.59 5.21 4.27 4.49.95zm-25.13-1.69l10.33.3 2.21-8.14-10.13-6.07-7.4-.51-3.7 2.18-1.51 7.75 5.55 7.01 4.65-2.52zm-247.12 25.94l-2.87 1.96.41 4.83 5.08 2.35.74 3.82 9.16 1.1 1.66-.74-5.36-7.11-.57-7.52 4.39-9.14 4.18-9.82 8.71-10.17 8.56-5.34 9.93-5.74 1.88-3.71-1.95-4.83-5.46 1.6-4.8 4.49-9.33 2.22-9.26 7.41-6.27 5.85.76 4.87-6.71 9.03 2.58 1.22-5.56 8.27.1 5.1zm147.48-67.94l.83-5.72-7.11-8.34-2.11-.98-2.3 1.7-5.12 18.6 15.81-5.26zM206.64 18.03l3.04 3.88 3.28-2.69.39-2.72 2.52-1.27 3.76-2.23 1.08-2.62-4.16-3.85-2.64 2.9-1.61 4.12-.57-4.65-4.26.21-5.47 3.14 6.24.52-1.6 5.26zm131.25 13.04l4.65 5.73 7.81 4.2 6.12-1.8.69-13.62-6.46-16.04-5.45-9.02-6.07 4.11-7.28 11.83 3.83 3.27 2.16 11.34z"/><path id="RW" stroke="#FFF" stroke-width=".5" d="M161.54 415.55l1.12 1.57-.17 1.64-.8.35-1.49-.18-.86 1.59-1.71-.22.26-1.53.39-.21.1-1.66.81-.78.68.29z"/><path id="SA" stroke="#FFF" stroke-width=".5" d="M196.2 366.22l-.36-1.24-.85-.88-.22-1.17-1.44-1.04-1.5-2.46-.79-2.41-1.94-2.04-1.25-.48-1.86-2.85-.32-2.08.12-1.79-1.61-3.36-1.31-1.19-1.52-.63-.92-1.76.15-.69-.78-1.6-.82-.69-1.09-2.32-1.71-2.52-1.43-2.16-1.39.01.43-1.74.13-1.11.34-1.28 3.12.51 1.22-.98.67-1.16 2.14-.44.46-1.09.93-.54-2.8-3.26 5.62-1.65.53-.49 3.38.89 4.18 2.29 7.9 6.49 5.21.26 2.5.31.7 1.51 1.98-.08 1.1 2.73 1.38.71.48 1.11 1.91 1.31.17 1.29-.28 1.03.36 1.04.8.87.38 1.01.42.75.84.61.78-.22.53 1.17.11.71 1.08 3.08 8.42 1.52.57-.64 1.28 2.14-1.87 5.97-8.41 2.96-8.08 1.13-2.62 1.32-2.01 3.07-1.31.48-.7-.97-1.07.15-2.71-.29-.52-.3-3.23.07-.76.27-1.15-.76-.75 1.43.29 1.23z"/><path id="SB" stroke="#FFF" stroke-width=".5" d="M530.81 441.75l.78.97-1.96-.02-1.07-1.74 1.67.69.58.1zm-3.55-1.73l-1.09.06-1.72-.29-.59-.44.18-1.12 1.85.44.91.59.46.76zm2.32-.77l-.42.52-2.08-2.45-.58-1.68h.95l1.01 2.25 1.12 1.36zm-5.06-3.56l.12.57-2.2-1.19-1.54-1.01-1.05-.94.42-.29 1.29.67 2.3 1.29.66.9zm-6.55-2.78l-.56.16-1.23-.64-1.15-1.15.14-.47 1.67 1.18 1.13.92z"/><path id="SD" stroke="#FFF" stroke-width=".5" d="M171.48 385.9l-.39-.05.05-1.41-.34-.97-1.44-1.12-.34-2.05.34-2.1-1.3-.19-.19.63-1.69.15.68.83.24 1.71-1.54 1.56-1.4 2.04-1.44.29-2.36-1.65-1.06.58-.29.83-1.44.53-.1.58h-2.79l-.39-.58-2.02-.1-1.01.49-.77-.25-1.44-1.65-.48-.77-2.03.39-.77 1.31-.72 2.52-.96.53-.86.31-.23-.14-.97-.81-.18-.87.45-1.18v-1.15l-1.62-1.77-.32-1.22.03-.69-1.03-.83-.03-1.66-.58-1.1-.99.17.28-1.05.73-1.2-.32-1.18.92-.88-.58-.67.74-1.78 1.28-2.13 2.42.2-.14-11.61.04-1.24 3.22-.01v-5.96H179.62l.9 2.94-.61.54.41 3.06 1.03 3.52 1.06.73 1.54 1.08-1.42 1.67-2.07.48-.88.9-.27 1.93-1.21 4.25.3 1.15-.45 2.47-1.14 2.81-1.69 1.42-1.2 2.17-.29 1.16-1.32.8-.83 2.96z"/><path id="SE" stroke="#FFF" stroke-width=".5" d="M138.45 166.49l-2.72 4.69.44 4.02-4.46 5.13-5.41 5.34-2.05 8.41 2 4.07 2.68 3.14-2.57 6.23-2.92 1.26-1.07 8.84-1.59 4.76-3.4-.49-1.59 3.95-3.25.23-.89-4.71-2.35-5.81-2.13-7.5 1.24-3.15 2.33-3.81.93-6.73-1.79-2.98-.18-8.04 1.83-5.91 2.78.11.97-2.55-1.02-2.23 4.35-9.5 2.81-7.87 1.85-5.24 2.69.02.75-4.21 5.28 1.22.41-5.08 1.74-.33 3.74 3.81 4.37 5.15.08 11.12.94 2.7z"/><path id="SI" stroke="#FFF" stroke-width=".5" d="M114.96 265.51l2.32.31 1.42-.92 2.45-.1.53-.69.47.05.55 1.37-2.23 1.08-.28 1.62-.97.41.01 1.12-1.1-.08-.95-.65-.52.68-1.95-.14.62-.36-.67-1.71z"/><path id="SK" stroke="#FFF" stroke-width=".5" d="M129.11 253.02l.16.26 1.16-.58 1.41 1.52 1.66-.92 1.32.44 2.02-.6 2.66 1.64-.77 1.11-.55 1.71-.6.43-3-1.28-.92.25-.66 1-1.32.52-.3-.27-1.36.65-1.12.13-.22.84-2.36.51-1.03-.46-1.43-1.07-.28-1.45.23-.54.39-.93 1.25.07.95-.44.08-.39.54-.21.18-.97.64-.19.44-.77z"/><path id="SL" stroke="#FFF" stroke-width=".5" d="M44.18 393.44l-.76-.21-2.01-1.13-1.46-1.5-.49-1.03-.35-2.08 1.5-1.24.32-.79.48-.61.78-.06.65-.53h2.24l.78 1.01.61 1.19-.09.82.45.74-.03 1.03.77-.16-1.31 1.31-1.26 1.53-.15.81z"/><path id="SN" stroke="#FFF" stroke-width=".5" d="M29.39 374.16l-1.16-2.24-1.4-1.02 1.24-.55 1.36-2.03.66-1.49.96-.93 1.4.25 1.36-.63 1.57-.03 1.34.85 1.86.77 1.7 2.13 1.85 1.98.13 1.79.55 1.64 1.05.81.24 1.1-.13.89-.41.16-1.52-.22-.21.31-.62.07-2.02-.7-1.35-.03-5.18-.12-.75.32-.93-.09-1.49.47-.46-2.19 2.55.06.68-.4.5-.03 1.04-.66 1.2.61 1.22.05 1.21-.65-.56-.82-.93.48-.87-.01-1.1-.71-.89.05-.64.67z"/><path id="SO" stroke="#FFF" stroke-width=".5" d="M219.63 379.43l-.07-.79-1.06.01-1.33.98-1.49.28-1.29.42-.89.06-1.6.1-1 .52-1.39.19-2.47.88-3.05.33-2.65.73-1.39-.01-1.26-1.19-.55-1.17-.91-.53-1.04 1.52-.61 1.01 1.04 1.56 1.03 1.36 1.07 1.01 9.17 3.34 2.36-.02-7.93 8.42-3.65.12-2.5 1.97-1.79.05-.77.88-2.45 3.17.03 10.15 1.66 2.29.63-.66.65-1.46 3.07-3.38 2.61-2.12 4.2-2.76 2.8-2.26 3.3-3.81 2.39-3.13 2.41-4.1 1.73-3.59 1.35-3.15.79-3.05.6-1.02-.01-1.5z"/><path id="SS" stroke="#FFF" stroke-width=".5" d="M171.48 385.9l.03 2.2-.42.86-1.48.07-.96 1.61 1.72.2 1.42 1.37.5 1.12 1.28.65 1.65 3.05-1.9 1.84-1.72 1.67-1.73 1.28h-1.97l-2.26.65-1.78-.63-1.15.77-2.47-1.86-.67-1.19-1.56.59-1.3-.19-.75.47-1.26-.33-1.69-2.31-.45-.89-2.1-1.11-.71-1.68-1.17-1.21-1.88-1.46-.03-.92-1.53-1.13-1.91-1.1.86-.31.96-.53.72-2.52.77-1.31 2.03-.39.48.77 1.44 1.65.77.25 1.01-.49 2.02.1.39.58h2.79l.1-.58 1.44-.53.29-.83 1.06-.58 2.36 1.65 1.44-.29 1.4-2.04 1.54-1.56-.24-1.71-.68-.83 1.69-.15.19-.63 1.3.19-.34 2.1.34 2.05 1.44 1.12.34.97-.05 1.41z"/><path id="SY" stroke="#FFF" stroke-width=".5" d="M185.02 313.6l-5.49 3.54-3.12-1.32-.06-.02.38-.5-.04-1.37.69-1.83 1.53-1.27-.46-1.32-1.26-.18-.26-2.61.68-1.41.75-.75.75-.76.16-1.94.91.68 3.09-.97 1.49.65 2.31-.01 3.22-1.31 1.52.06 3.19-.54-1.44 2.18-1.54.86.27 2.52-1.06 4.12z"/><path id="SZ" stroke="#FFF" stroke-width=".5" d="M166.18 489.74l-.57 1.39-1.64.33-1.68-1.69-.02-1.08.76-1.17.27-.9.81-.22 1.41.57.42 1.39z"/><path id="TD" stroke="#FFF" stroke-width=".5" d="M116.9 376.26l.28-1.34-1.8-.07.01-1.85-1.17-1.06 1.21-3.8 3.58-2.74.14-3.79 1.08-5.98.61-1.28-1.16-1.02-.05-.95-1.05-.78-.69-4.67 2.83-1.66 11.19 5.77 11.18 5.7.14 11.61-2.42-.2-1.28 2.13-.74 1.78.58.67-.92.88.32 1.18-.73 1.2-.28 1.05.99-.17.58 1.1.03 1.66 1.03.83-.03.69-1.77.49-1.43 1.14-2.02 3.09-2.64 1.31-2.71-.18-.79.26.28.99-1.47.99-1.19 1.1-3.53 1.07-.7-.63-.46-.06-.52.72-2.32.22.44-.77-.88-1.93-.4-1.17-1.22-.48-1.65-1.65.61-1.33 1.28.28.79-.2 1.56.03-1.52-2.57.1-1.89-.19-1.89z"/><path id="TF" stroke="#FFF" stroke-width=".5" d="M269.54 568.03l1.8 1.33 2.65.54.1.81-.78 1.96-4.31.28-.07-2.29.42-1.76z"/><path id="TG" stroke="#FFF" stroke-width=".5" d="M81.48 395.25l-2.25.59-.63-.98-.75-1.78-.22-1.4.62-2.53-.7-1.03-.27-2.22v-2.05l-1.17-1.46.21-.89 2.46.06-.36 1.5.85.83.98.99.1 1.39.57.58-.13 6.46z"/><path id="TH" stroke="#FFF" stroke-width=".5" d="M363.89 378.18l-2.52-1.31-2.4.06.41-2.25-2.47.02-.22 3.14-1.51 4.15-.91 2.5.19 2.05 1.82.09 1.14 2.57.51 2.43 1.56 1.61 1.7.33 1.45 1.45-.91 1.15-1.86.34-.22-1.44-2.28-1.23-.49.5-1.11-1.07-.48-1.39-1.49-1.59-1.36-1.33-.46 1.65-.53-1.56.31-1.76.82-2.71 1.36-2.91 1.54-2.65-1.1-2.6.05-1.33-.32-1.6-1.87-2.28-.67-1.45.97-.53 1.02-2.52-1.14-1.92-1.78-2.13-1.36-2.57 1.18-.53 1.28-3.19 1.98-.14 1.64-1.28 1.6-.69 1.22.92.16 1.78 1.89.13-.69 3.11.07 2.62 2.95-1.74.84.51 1.65-.08.56-1.02 2.12.2 2.13 2.38.18 2.87 2.27 2.53-.13 2.44-.91 1.3-2.63-.41-3.62.55-1.8 2.38z"/><path id="TJ" stroke="#FFF" stroke-width=".5" d="M275.37 289.62l-1.03 1.13-3.05-.61-.27 2.1 3.04-.28 3.47 1.17 5.3-.55.71 3.33.92-.36 1.7.81-.09 1.38.42 2.01h-2.9l-1.93-.26-1.74 1.57-1.25.34-.98.74-1.11-1.15.27-2.95-.85-.17.3-1.09-1.51-.8-1.21 1.23-.3 1.43-.43.52-1.68-.07-.9 1.6-.95-.67-2.03 1.12-.85-.42 1.57-3.57-.6-2.66-2.06-.86.73-1.59 2.34.17 1.33-2.01.89-2.35 3.75-.86-.58 1.71.4 1.02z"/><path id="TL" stroke="#FFF" stroke-width=".5" d="M426.65 437.25l.33-.66 2.41-.63 1.96-.1.87-.35 1.06.35-1.03.76-2.92 1.23-2.35.82-.05-.86z"/><path id="TM" stroke="#FFF" stroke-width=".5" d="M247.88 305.9l-.25-2.91-2.09-.12-3.2-3.09-2.24-.39-3.1-1.79-2-.33-1.23.66-1.87-.1-1.99 2.02-2.47.68-.52-2.49.41-3.73-2.19-1.22.72-2.48-1.86-.22.62-3.09 2.64.91 2.47-1.19-2.05-2.23-.8-2.14-2.26.96-.28 2.73-.88-2.41 1.24-1.25 3.18-.79 1.9 1.06 1.96 2.93 1.44-.18 3.16-.05-.46-1.88 2.4-1.3 2.36-2.2 3.78 2 .3 2.99 1.07.77 3.03-.17.94.67 1.38 3.79 3.21 2.51 1.83 1.69 2.93 1.75 3.73 1.52-.08 2.16-.84-.11-1.33-.94-.44 1.25-2.36.68-.56 2.79-1.58 1.05-2.21.52-.59 1.55-2.11.46z"/><path id="TN" stroke="#FFF" stroke-width=".5" d="M102.84 323.69l-1.2-5.86-1.72-1.33-.03-.81-2.29-1.98-.25-2.53 1.73-1.88.66-2.82-.45-3.28.57-1.79 3.06-1.41 1.96.42-.08 1.77 2.38-1.29.2.67-1.41 1.71-.01 1.6.97.85-.37 2.96-1.85 1.71.53 1.83 1.45.06.71 1.59 1.07.52-.16 2.55-1.37.95-.86 1.05-1.93 1.26.3 1.35-.24 1.38z"/><path id="TR" stroke="#FFF" stroke-width=".5" d="M179.75 285.6l4.02 1.43 3.27-.57 2.41.33 3.31-1.94 2.99-.18 2.7 1.83.48 1.3-.27 1.79 2.08.91 1.1 1.06-1.92 1.03.88 4.11-.55 1.1 1.53 2.82-1.34.59-.98-.89-3.26-.45-1.2.55-3.19.54-1.51-.06-3.23 1.31-2.31.01-1.49-.66-3.09.97-.92-.68-.15 1.94-.75.76-.75.76-1.03-1.57 1.06-1.3-1.71.3-2.35-.8-1.93 2-4.26.39-2.27-1.86-3.02-.12-.65 1.44-1.94.41-2.71-1.85-3.06.06-1.66-3.48-2.05-1.96 1.36-2.78-1.78-1.72 3.11-3.48 4.32-.15 1.18-2.81 5.34.49 3.37-2.42 3.27-1.06 4.64-.08 4.91 2.64zm-27.25 2.39l-2.34 1.98-.88-1.71.04-.76.67-.41.87-2.33-1.37-.99 2.86-1.18 2.41.5.33 1.44 2.45 1.2-.51.91-3.33.2-1.2 1.15z"/><path id="TW" stroke="#FFF" stroke-width=".5" d="M417.7 342.27l-1.69 4.87-1.2 2.48-1.48-2.55-.32-2.25 1.65-3 2.25-2.32 1.28.91z"/><path id="TZ" stroke="#FFF" stroke-width=".5" d="M171.31 415.03l.48.31 10.16 5.67.2 1.62 4.02 2.79-1.29 3.45.16 1.59 1.8 1.02.08.73-.77 1.7.16.85-.18 1.35.98 1.76 1.16 2.79 1.02.62-2.23 1.64-3.06 1.1-1.68-.04-1 .85-1.95.07-.74.36-3.37-.8-2.11.23-.78-3.86-.95-1.32-.57-.78-2.74-.52-1.6-.85-1.78-.47-1.12-.48-1.17-.71-1.51-3.55-1.63-1.57-.56-1.62.28-1.46-.5-2.57 1.16-.13 1.01-1.01 1.1-1.46.69-.58-.03-.91-.6-.63-.16-1.1.8-.35.17-1.64-1.12-1.57.99-.34 3.07.04z"/><path id="UA" stroke="#FFF" stroke-width=".5" d="M165.38 241.49l1.04.19.71-1.04.85.23 2.91-.44 1.79 2.57-.7.92.23 1.39 2.24.21 1 1.93-.06.87 3.56 1.54 2.15-.69 1.73 2.04 1.64-.04 4.13 1.4.03 1.27-1.13 2.23.61 2.33-.44 1.39-2.71.31-1.44 1.16-.09 1.83-2.24.33-1.87 1.32-2.62.21-2.42 1.52-1.32 1.03 1.49 1.47 1.37.96 2.86-.24-.55 1.42-3.07.68-3.81 2.27-1.55-.79.61-1.85-3.06-1.16.5-.77 3.16-1.63-.4-.81-.45.41-.44-.22-4.36-1.02-.19-1.51-2.6.5-1.04 2.23-2.17 2.95-1.28-.68-1.31.64-1.25-.73.7-.44.49-1.37.77-1.29-.2-.72.59-.32.27.56 1.66.11.74-.29-.52-.42.19-.6-.98-1.04-.4-1.72-1.02-.67.2-1.41-1.27-1.12-1.15-.16-2.07-1.31-1.86.42-.67.62-1.18-.01-.71.98-2.07.4-.95.64-1.31-1.01-1.79-.02-1.74-.46-1.21.89-.2-1.12-1.55-1.14.55-1.71.77-1.1.62.24-.73-1.92 2.55-3.61 1.39-.51.3-1.24-1.41-3.89 1.34-.17 1.54-1.23 2.17-.1 2.83.36 3.13 1.08 2.21.09 1.05.65 1.05-.78.74 1.05 2.53-.22 1.11.43.19-2.26.86-1z"/><path id="UG" stroke="#FFF" stroke-width=".5" d="M165.6 415.25l-3.07-.04-.99.34-1.67.86-.68-.29.02-2.1.65-1.06.16-2.24.59-1.29 1.07-1.46 1.08-.74.9-.99-1.12-.37.17-3.26 1.15-.77 1.78.63 2.26-.65h1.97l1.73-1.28 1.33 1.94.33 1.4 1.23 3.2-1.02 2.03-1.38 1.84-.8 1.13.02 2.95z"/><path id="UZ" stroke="#FFF" stroke-width=".5" d="M262.76 299.95l.08-2.16-3.73-1.52-2.93-1.75-1.83-1.69-3.21-2.51-1.38-3.79-.94-.67-3.03.17-1.07-.77-.3-2.99-3.78-2-2.36 2.2-2.4 1.3.46 1.88-3.16.05-.11-14.13 7.22-2.35.52.35 4.35 2.84 2.29 1.48 2.68 3.5 3.29-.56 4.81-.3 3.35 2.8-.21 3.8 1.37.03.57 3.06 3.57.12.76 1.75 1.05-.02 1.23-2.65 3.69-2.61 1.61-.7.83.37-2.35 2.43 2.07 1.4 2-.93 3.32 1.96-3.59 2.64-2.13-.36-1.16.1-.4-1.02.58-1.71-3.75.86-.89 2.35-1.33 2.01-2.34-.17-.73 1.59 2.06.86.6 2.66-1.57 3.57-2.12-.74z"/><path id="VN" stroke="#FFF" stroke-width=".5" d="M379.21 350.87l-3.74 2.56-2.34 2.81-.62 2.05 2.15 3.09 2.62 3.82 2.54 1.79 1.71 2.33 1.28 5.32-.38 5.02-2.33 1.87-3.22 1.83-2.28 2.36-3.5 2.62-1.02-1.81.79-1.91-2.08-1.61 2.43-1.14 2.94-.2-1.23-1.73 4.71-2.19.35-3.42-.65-1.92.51-2.88-.71-2.04-2.12-2.02-1.77-2.57-2.33-3.46-3.36-1.76.81-1.07 1.79-.77-1.09-2.59-3.45-.03-1.26-2.72-1.64-2.37 1.51-.74 2.23.02 2.73-.35 2.39-1.62 1.35 1.14 2.57.55-.45 1.74 1.34 1.22z"/><path id="VU" stroke="#FFF" stroke-width=".5" d="M546.87 458.9l-.92.38-.94-1.27.1-.78 1.76 1.67zm-2.07-4.44l.46 2.33-.75-.36-.58.16-.4-.8-.06-2.21 1.33.88z"/><path id="YE" stroke="#FFF" stroke-width=".5" d="M225.16 365.33l-2.03.79-.54 1.28-.07.99-2.79 1.22-4.48 1.35-2.51 2.03-1.23.15-.84-.17-1.64 1.2-1.79.55-2.35.15-.71.16-.61.75-.74.21-.43.73-1.39-.06-.9.38-1.94-.14-.73-1.67.08-1.57-.45-.85-.55-2.12-.81-1.19.56-.14-.29-1.32.34-.56-.12-1.26 1.23-.93-.29-1.23.75-1.43 1.15.76.76-.27 3.23-.07.52.3 2.71.29 1.07-.15.7.97 1.31-.48 2.01-3.07 2.62-1.32 8.08-1.13 2.2 4.84z"/><path id="ZA" stroke="#FFF" stroke-width=".5" d="M164.63 497.71l-.55.46-1.19 1.63-.78 1.66-1.59 2.33-3.17 3.38-1.98 1.98-2.12 1.51-2.93 1.3-1.43.17-.36.93-1.7-.5-1.39.64-3.04-.65-1.7.41-1.16-.18-2.89 1.33-2.39.54-1.73 1.28-1.28.08-1.19-1.21-.95-.06-1.21-1.51-.13.47-.37-.91.02-1.96-.91-2.23.9-.6-.07-2.53-1.84-3.05-1.41-2.74v-.01l-2.01-4.15 1.34-1.57 1.11.87.47 1.36 1.26.23 1.76.6 1.51-.23 2.5-1.63v-11.52l.76.46 1.66 2.93-.26 1.89.63 1.1 2.01-.32 1.4-1.39 1.33-.93.69-1.48 1.37-.72 1.18.38 1.34.87 2.28.15 1.79-.72.28-.96.49-1.47 1.53-.25.84-1.15.93-2.03 2.52-2.26 3.97-2.22 1.14.03 1.36.51.94-.36 1.49.3 1.34 4.26.73 2.17-.5 3.43.24 1.11-1.42-.57-.81.22-.26.9-.77 1.17.03 1.08 1.67 1.7 1.64-.34.57-1.39 2.13.03-.7 2.28-.33 2.62-.73 1.43-1.9 1.62zm-7.13-.96l-1.22-.98-1.31.65-1.52 1.25-1.5 2.03 2.1 2.48 1-.32.52-1.03 1.56-.5.48-1.05.86-1.56-.97-.97z"/><path id="ZM" stroke="#FFF" stroke-width=".5" d="M168.11 438.21l1.32 1.26.71 2.4-.48.77-.56 2.3.54 2.36-.88.99-.85 2.66 1.47.74-8.51 2.38.27 2.05-2.13.4-1.59 1.15-.34 1.01-1.01.22-2.44 2.4-1.55 1.89-.95.07-.91-.34-3.13-.32-.5-.22-.03-.24-1.1-.66-1.82-.17-2.3.67-1.83-1.82-1.89-2.38.13-9.16 5.84.04-.24-.99.42-1.07-.49-1.33.32-1.38-.3-.88.97.07.16.88 1.31-.07 1.78.26.94 1.29 2.24.4 1.72-.9.63 1.49 2.15.4 1.03 1.22 1.15 1.57 2.15.03-.24-3.08-.77.51-1.96-1.1-.76-.51.35-2.85.5-3.35-.63-1.25.8-1.8.75-.33 3.77-.48 1.1.29 1.17.71 1.12.48 1.78.47z"/><path id="ZW" stroke="#FFF" stroke-width=".5" d="M163.71 476l-1.49-.3-.95.36-1.35-.51-1.14-.03-1.79-1.36-2.17-.46-.82-1.9-.01-1.05-1.2-.32-3.17-3.25-.89-1.71-.56-.52-1.08-2.35 3.13.32.91.34.95-.07 1.55-1.89 2.44-2.4 1.01-.22.34-1.01 1.59-1.15 2.13-.4.18 1.08 2.34-.06 1.3.61.6.72 1.34.21 1.45.94.01 3.69-.55 2.04-.12 2.2.45.88-.31 1.74-.43.27-.74 2.15z"/></g><g id="year1939"><g id="Routes" transform="translate(11 241)"><path id="path1" stroke="#4A90E2" d="M77.6495.62c-7.0561 3.9648-14.4729 9.2202-20.8857 11.295C40.279 17.2481 32.3278 32.1 28.9702 39.6294c-3.8002 8.5219-3.9485 20.6986-.4449 36.5302"/><path id="path2" stroke="#F5A623" d="M28.4096 76.8921C19.5118 66.29 13.8154 60.1376 11.3203 58.435c-2.495-1.7026-5.8848-2.4103-10.1693-2.1229"/><path id="path3" stroke="#D0021B" d="M.4931 57.1875c2.449 52.0059 6.0446 82.3106 10.7866 90.9142 2.5588 4.6425 19.574 47.6081 40.21 71.345 11.738 13.5018 34.1186 31.1126 67.1421 52.8325"/><path id="path4" stroke="#9013FE" d="M118.281 272.577c.0181 8.2564 3.044 11.456 9.0774 9.599 4.1763-1.2855 53.8002-4.5535 131.8447-32.5337 23.137-8.295 62.3085-27.1652 117.5143-56.6107"/><path id="path5" stroke="#417505" d="M377.7556 193.345c-15.134 12.3744-31.4942 23.3768-49.0809 33.0074-19.8778 10.8851-177.4765 89.3143-247.3122 48.3353C62.045 263.3522 10.7111 198.7529 5.0132 136.82 3.1197 116.238 14.9135 88.3998 40.395 53.3057"/><use class="svgBoat" href="#boat"/></g></g><g id="year1940" stroke="#D0021B" transform="translate(392 432)"><g id="Routes"><path id="Path-6" d="M.5105.1553c32.81.1648 52.469 1.8382 58.9773 5.0201 13.6225 6.6601 28.7093-.2586 36.0511 11.1852 3.6898 5.7513 17.7603 21.1344 20.8274 29.9374 6.89 19.7756 4.198 31.5129-8.0756 35.2119"/><use class="svgBoat" href="#boat"/></g></g><g id="year1945" transform="translate(368 408)"><g id="Routes"><path id="Path-6" stroke="#D0021B" d="M.47.3911C5.802 8.3881 12.422 13.9834 20.3304 17.177c9.3138 3.761 19.829 4.1436 30.0276 5.8271 13.0243 2.15 25.5925 5.2169 35.1298 7.1714 15.7914 3.2363 28.7093-.2586 36.0511 11.1852 3.6898 5.7513 17.7603 21.1344 20.8274 29.9374 6.89 19.7756 3.7861 31.748-9.3115 35.9174"/><path id="Path-7" stroke="#F5A623" d="M132.437 107.1818c1.772 6.9965 1.772 11.1327 0 12.4086-1.2763.919-8.5431 5.7865-13.941 5.3817-1.3977-.1048-2.4952-1.8987-3.2925-5.3817"/><path id="Path-8" stroke="#4A90E2" d="M115.4705 119.6886c-.6453 4.3201-2.4357 6.6305-5.371 6.931-39.9985 4.095-70.6116-9.3016-77.242-12.763-12.6896-6.6243-16.8645-35.7715-12.5247-87.4416"/><use class="svgBoat" href="#boat"/></g></g><g id="year1946" transform="translate(13 241)"><g id="Routes"><path id="Path-5" stroke="#417505" d="M375.7556 193.345c-15.134 12.3744-31.4942 23.3768-49.0809 33.0074-19.8778 10.8851-177.4765 89.3143-247.3122 48.3353C60.045 263.3522 8.7111 198.7529 3.0132 136.82 1.4805 120.1604 32.9214 20.471 48.6646 14.7843 59.16 10.993 68.115 6.388 75.5299.9693"/><path id="Path-5" stroke="#4A90E2" d="M389.8896 274.6877c-35.8415-3.6757-62.1546-5.5136-78.9392-5.5136-24.5707 0-162.7522 46.4926-232.5879 5.5136C59.045 263.3522 7.7111 198.7529 2.0132 136.82.4805 120.1604 31.9214 20.471 47.6646 14.7843 58.16 10.993 67.115 6.388 74.5299.9693"/><path id="Path-5" stroke="#D0021B" d="M388.8896 275.6877c-35.8415-3.6757-62.1546-5.5136-78.9392-5.5136-24.5707 0-162.7522 46.4926-232.5879 5.5136C58.045 264.3522 6.7111 199.7529 1.0132 137.82-.5195 121.1604 30.9214 21.471 46.6646 15.7843 57.16 11.993 66.115 7.388 73.5299 1.9693"/><use class="svgBoat" href="#boat"/></g></g><g id="year1953" stroke="#D0021B" transform="translate(15 241)"><g id="Routes"><path id="Path-5" d="M373.7556 193.345c-15.134 12.3744-31.4942 23.3768-49.0809 33.0074-19.8778 10.8851-177.4765 89.3143-247.3122 48.3353C58.045 263.3522 6.7111 198.7529 1.0132 136.82-.5195 120.1604 30.9214 20.471 46.6646 14.7843 57.16 10.993 66.115 6.388 73.5299.9693"/><use class="svgBoat" href="#boat"/></g></g><g id="year1954" stroke="#4A90E2" transform="translate(16 241)"><g id="Routes"><path id="Path-5" d="M373.7556 193.345c-15.134 12.3744-31.4942 23.3768-49.0809 33.0074-19.8778 10.8851-177.4765 89.3143-247.3122 48.3353C58.045 263.3522 6.7111 198.7529 1.0132 136.82-.5195 120.1604 30.9214 20.471 46.6646 14.7843 57.16 10.993 66.115 6.388 73.5299.9693"/><use class="svgBoat" href="#boat"/></g></g><g id="year1958" stroke="#F5A623" transform="translate(15 241)"><g id="Routes"><path id="Path-5" d="M373.7556 193.345c-15.134 12.3744-31.4942 23.3768-49.0809 33.0074-19.8778 10.8851-177.4765 89.3143-247.3122 48.3353C58.045 263.3522 6.7111 198.7529 1.0132 136.82-.5195 120.1604 30.9214 20.471 46.6646 14.7843 57.16 10.993 66.115 6.388 73.5299.9693"/><use class="svgBoat" href="#boat"/></g></g><g id="year1959" stroke="#4A90E2" transform="translate(14 241)"><g id="Routes"><path id="Path-6" d="M388.8896 274.6877c-35.8415-3.6757-62.1546-5.5136-78.9392-5.5136-24.5707 0-162.7522 46.4926-232.5879 5.5136C58.045 263.3522 6.7111 198.7529 1.0132 136.82-.5195 120.1604 30.9214 20.471 46.6646 14.7843 57.16 10.993 66.115 6.388 73.5299.9693"/><use class="svgBoat" href="#boat"/></g></g></g></g></svg>